<ttFont>
    <TTGlyph name=".notdef" xMin="193" yMin="0" xMax="1034" yMax="1462">
      <contour>
        <pt x="193" y="1462" on="1"/>
        <pt x="1034" y="1462" on="1"/>
        <pt x="1034" y="0" on="1"/>
        <pt x="193" y="0" on="1"/>
      </contour>
      <contour>
        <pt x="297" y="104" on="1"/>
        <pt x="930" y="104" on="1"/>
        <pt x="930" y="1358" on="1"/>
        <pt x="297" y="1358" on="1"/>
      </contour>
    </TTGlyph>
    <TTGlyph name="afii301" xMin="-299" yMin="-338" xMax="299" yMax="1613">
      <contour>
        <pt x="74" y="1323" on="1"/>
        <pt x="299" y="1103" on="1"/>
        <pt x="224" y="1030" on="1"/>
        <pt x="54" y="1199" on="1"/>
        <pt x="54" y="-338" on="1"/>
        <pt x="-54" y="-338" on="1"/>
        <pt x="-54" y="1199" on="1"/>
        <pt x="-224" y="1030" on="1"/>
        <pt x="-299" y="1103" on="1"/>
        <pt x="-74" y="1323" on="1"/>
        <pt x="-299" y="1540" on="1"/>
        <pt x="-224" y="1613" on="1"/>
        <pt x="0" y="1393" on="1"/>
        <pt x="224" y="1613" on="1"/>
        <pt x="299" y="1539" on="1"/>
      </contour>
    </TTGlyph>
    <TTGlyph name="afii61664" xMin="-54" yMin="-339" xMax="54" yMax="1613">
      <contour>
        <pt x="-54" y="-339" on="1"/>
        <pt x="-54" y="1613" on="1"/>
        <pt x="54" y="1613" on="1"/>
        <pt x="54" y="-339" on="1"/>
      </contour>
    </TTGlyph>
    <TTGlyph name="uni25CC" xMin="106" yMin="222" xMax="938" yMax="1053">
      <contour>
        <pt x="581" y="995" on="1"/>
        <pt x="581" y="965" on="0"/>
        <pt x="552" y="936" on="0"/>
        <pt x="521" y="936" on="1"/>
        <pt x="463" y="936" on="0"/>
        <pt x="463" y="995" on="1"/>
        <pt x="463" y="1025" on="0"/>
        <pt x="491" y="1053" on="0"/>
        <pt x="521" y="1053" on="1"/>
        <pt x="552" y="1053" on="0"/>
        <pt x="581" y="1025" on="0"/>
      </contour>
      <contour>
        <pt x="316" y="893" on="1"/>
        <pt x="316" y="834" on="0"/>
        <pt x="257" y="834" on="1"/>
        <pt x="198" y="834" on="0"/>
        <pt x="198" y="893" on="1"/>
        <pt x="198" y="952" on="0"/>
        <pt x="257" y="952" on="1"/>
        <pt x="316" y="952" on="0"/>
      </contour>
      <contour>
        <pt x="846" y="893" on="1"/>
        <pt x="846" y="834" on="0"/>
        <pt x="787" y="834" on="1"/>
        <pt x="728" y="834" on="0"/>
        <pt x="728" y="893" on="1"/>
        <pt x="728" y="952" on="0"/>
        <pt x="787" y="952" on="1"/>
        <pt x="846" y="952" on="0"/>
      </contour>
      <contour>
        <pt x="938" y="638" on="1"/>
        <pt x="938" y="579" on="0"/>
        <pt x="878" y="579" on="1"/>
        <pt x="819" y="579" on="0"/>
        <pt x="819" y="638" on="1"/>
        <pt x="819" y="697" on="0"/>
        <pt x="878" y="697" on="1"/>
        <pt x="938" y="697" on="0"/>
      </contour>
      <contour>
        <pt x="224" y="638" on="1"/>
        <pt x="224" y="579" on="0"/>
        <pt x="165" y="579" on="1"/>
        <pt x="106" y="579" on="0"/>
        <pt x="106" y="638" on="1"/>
        <pt x="106" y="697" on="0"/>
        <pt x="165" y="697" on="1"/>
        <pt x="224" y="697" on="0"/>
      </contour>
      <contour>
        <pt x="316" y="383" on="1"/>
        <pt x="316" y="324" on="0"/>
        <pt x="257" y="324" on="1"/>
        <pt x="198" y="324" on="0"/>
        <pt x="198" y="383" on="1"/>
        <pt x="198" y="442" on="0"/>
        <pt x="257" y="442" on="1"/>
        <pt x="316" y="442" on="0"/>
      </contour>
      <contour>
        <pt x="846" y="383" on="1"/>
        <pt x="846" y="324" on="0"/>
        <pt x="787" y="324" on="1"/>
        <pt x="728" y="324" on="0"/>
        <pt x="728" y="383" on="1"/>
        <pt x="728" y="442" on="0"/>
        <pt x="787" y="442" on="1"/>
        <pt x="846" y="442" on="0"/>
      </contour>
      <contour>
        <pt x="581" y="281" on="1"/>
        <pt x="581" y="251" on="0"/>
        <pt x="552" y="222" on="0"/>
        <pt x="521" y="222" on="1"/>
        <pt x="463" y="222" on="0"/>
        <pt x="463" y="281" on="1"/>
        <pt x="463" y="340" on="0"/>
        <pt x="521" y="340" on="1"/>
        <pt x="552" y="340" on="0"/>
        <pt x="581" y="311" on="0"/>
      </contour>
    </TTGlyph>
    <TTGlyph name="uniA78C" xMin="235" yMin="965" xMax="462" yMax="1493">
      <contour>
        <pt x="462" y="1493" on="1"/>
        <pt x="411" y="965" on="1"/>
        <pt x="286" y="965" on="1"/>
        <pt x="235" y="1493" on="1"/>
      </contour>
    </TTGlyph>
    <TTGlyph name="uniAA80" xMin="120" yMin="-10" xMax="1203" yMax="1118">
      <contour>
        <pt x="186" y="1118" on="1"/>
        <pt x="302" y="1052" on="0"/>
        <pt x="421" y="825" on="0"/>
        <pt x="435" y="658" on="1"/>
        <pt x="488" y="782" on="0"/>
        <pt x="653" y="996" on="0"/>
        <pt x="835" y="1118" on="0"/>
        <pt x="919" y="1118" on="1"/>
        <pt x="1045" y="1118" on="0"/>
        <pt x="1174" y="908" on="0"/>
        <pt x="1174" y="699" on="1"/>
        <pt x="1174" y="598" on="0"/>
        <pt x="1161" y="384" on="0"/>
        <pt x="1161" y="284" on="1"/>
        <pt x="1161" y="139" on="0"/>
        <pt x="1203" y="50" on="1"/>
        <pt x="1026" y="-10" on="1"/>
        <pt x="981" y="87" on="0"/>
        <pt x="981" y="253" on="1"/>
        <pt x="981" y="342" on="0"/>
        <pt x="994" y="554" on="0"/>
        <pt x="994" y="687" on="1"/>
        <pt x="994" y="978" on="0"/>
        <pt x="895" y="978" on="1"/>
        <pt x="826" y="978" on="0"/>
        <pt x="648" y="800" on="0"/>
        <pt x="478" y="482" on="0"/>
        <pt x="421" y="294" on="1"/>
        <pt x="399" y="169" on="0"/>
        <pt x="358" y="50" on="1"/>
        <pt x="166" y="-5" on="1"/>
        <pt x="208" y="104" on="0"/>
        <pt x="261" y="450" on="0"/>
        <pt x="261" y="610" on="1"/>
        <pt x="261" y="803" on="0"/>
        <pt x="192" y="987" on="0"/>
        <pt x="120" y="1028" on="1"/>
      </contour>
    </TTGlyph>
    <TTGlyph name="uniAA81" xMin="100" yMin="-8" xMax="1445" yMax="1137">
      <contour>
        <pt x="100" y="-5" on="1"/>
        <pt x="247" y="1118" on="0"/>
        <pt x="802" y="1118" on="1"/>
        <pt x="995" y="1118" on="0"/>
        <pt x="1070" y="968" on="1"/>
        <pt x="1249" y="1074" on="0"/>
        <pt x="1417" y="1137" on="1"/>
        <pt x="1445" y="1055" on="1"/>
        <pt x="1309" y="1002" on="0"/>
        <pt x="1104" y="867" on="1"/>
        <pt x="1120" y="789" on="0"/>
        <pt x="1120" y="699" on="1"/>
        <pt x="1120" y="598" on="0"/>
        <pt x="1107" y="384" on="0"/>
        <pt x="1107" y="284" on="1"/>
        <pt x="1107" y="138" on="0"/>
        <pt x="1149" y="49" on="1"/>
        <pt x="972" y="-8" on="1"/>
        <pt x="927" y="89" on="0"/>
        <pt x="927" y="253" on="1"/>
        <pt x="927" y="342" on="0"/>
        <pt x="940" y="554" on="0"/>
        <pt x="940" y="687" on="1"/>
        <pt x="940" y="718" on="1"/>
        <pt x="939" y="748" on="1"/>
        <pt x="724" y="585" on="0"/>
        <pt x="375" y="212" on="0"/>
        <pt x="286" y="50" on="1"/>
        <pt x="286" y="49" on="1"/>
      </contour>
      <contour>
        <pt x="786" y="978" on="1"/>
        <pt x="618" y="978" on="0"/>
        <pt x="382" y="653" on="0"/>
        <pt x="321" y="332" on="1"/>
        <pt x="566" y="633" on="0"/>
        <pt x="923" y="874" on="1"/>
        <pt x="892" y="978" on="0"/>
      </contour>
    </TTGlyph>
    <TTGlyph name="uniAA82" xMin="100" yMin="-380" xMax="1989" yMax="1385">
      <contour>
        <pt x="1440" y="-210" on="1"/>
        <pt x="1478" y="-239" on="0"/>
        <pt x="1587" y="-270" on="0"/>
        <pt x="1637" y="-270" on="1"/>
        <pt x="1744" y="-270" on="0"/>
        <pt x="1839" y="-193" on="0"/>
        <pt x="1839" y="-121" on="1"/>
        <pt x="1839" y="-55" on="0"/>
        <pt x="1716" y="26" on="0"/>
        <pt x="1607" y="26" on="1"/>
        <pt x="1480" y="26" on="0"/>
        <pt x="1330" y="3" on="1"/>
        <pt x="1181" y="-20" on="0"/>
        <pt x="1047" y="-20" on="1"/>
        <pt x="931" y="-20" on="0"/>
        <pt x="812" y="93" on="0"/>
        <pt x="812" y="196" on="1"/>
        <pt x="812" y="254" on="0"/>
        <pt x="842" y="407" on="0"/>
        <pt x="878" y="579" on="0"/>
        <pt x="908" y="764" on="0"/>
        <pt x="908" y="854" on="1"/>
        <pt x="908" y="908" on="0"/>
        <pt x="839" y="978" on="0"/>
        <pt x="790" y="978" on="1"/>
        <pt x="700" y="978" on="0"/>
        <pt x="566" y="899" on="0"/>
        <pt x="467" y="763" on="0"/>
        <pt x="397" y="580" on="0"/>
        <pt x="347" y="374" on="0"/>
        <pt x="312" y="154" on="0"/>
        <pt x="296" y="49" on="1"/>
        <pt x="100" y="-5" on="1"/>
        <pt x="142" y="337" on="0"/>
        <pt x="346" y="845" on="0"/>
        <pt x="649" y="1118" on="0"/>
        <pt x="832" y="1118" on="1"/>
        <pt x="913" y="1118" on="0"/>
        <pt x="1028" y="1052" on="0"/>
        <pt x="1088" y="939" on="0"/>
        <pt x="1088" y="870" on="1"/>
        <pt x="1088" y="766" on="0"/>
        <pt x="1040" y="514" on="1"/>
        <pt x="1007" y="341" on="0"/>
        <pt x="992" y="229" on="0"/>
        <pt x="992" y="192" on="1"/>
        <pt x="992" y="158" on="0"/>
        <pt x="1028" y="120" on="0"/>
        <pt x="1080" y="120" on="1"/>
        <pt x="1189" y="120" on="0"/>
        <pt x="1344" y="146" on="1"/>
        <pt x="1430" y="157" on="1"/>
        <pt x="1465" y="572" on="0"/>
        <pt x="1713" y="1190" on="0"/>
        <pt x="1916" y="1385" on="1"/>
        <pt x="1964" y="1322" on="1"/>
        <pt x="1872" y="1230" on="0"/>
        <pt x="1718" y="885" on="0"/>
        <pt x="1615" y="406" on="0"/>
        <pt x="1604" y="166" on="1"/>
        <pt x="1787" y="164" on="0"/>
        <pt x="1989" y="18" on="0"/>
        <pt x="1989" y="-104" on="1"/>
        <pt x="1989" y="-232" on="0"/>
        <pt x="1812" y="-380" on="0"/>
        <pt x="1655" y="-380" on="1"/>
        <pt x="1517" y="-380" on="0"/>
        <pt x="1395" y="-274" on="1"/>
      </contour>
    </TTGlyph>
    <TTGlyph name="uniAA83" xMin="100" yMin="-600" xMax="2115" yMax="1118">
      <contour>
        <pt x="1833" y="582" on="1"/>
        <pt x="1864" y="588" on="0"/>
        <pt x="1895" y="588" on="1"/>
        <pt x="1992" y="588" on="0"/>
        <pt x="2115" y="455" on="0"/>
        <pt x="2115" y="345" on="1"/>
        <pt x="2115" y="197" on="0"/>
        <pt x="1889" y="-144" on="0"/>
        <pt x="1438" y="-499" on="0"/>
        <pt x="1215" y="-600" on="1"/>
        <pt x="1168" y="-523" on="1"/>
        <pt x="1515" y="-348" on="0"/>
        <pt x="1935" y="113" on="0"/>
        <pt x="1935" y="312" on="1"/>
        <pt x="1935" y="385" on="0"/>
        <pt x="1874" y="448" on="0"/>
        <pt x="1827" y="448" on="1"/>
        <pt x="1786" y="448" on="0"/>
        <pt x="1721" y="430" on="0"/>
        <pt x="1660" y="394" on="0"/>
        <pt x="1597" y="339" on="1"/>
        <pt x="1524" y="438" on="1"/>
        <pt x="1605" y="500" on="0"/>
        <pt x="1722" y="711" on="0"/>
        <pt x="1722" y="802" on="1"/>
        <pt x="1722" y="886" on="0"/>
        <pt x="1651" y="978" on="0"/>
        <pt x="1590" y="978" on="1"/>
        <pt x="1529" y="978" on="0"/>
        <pt x="1441" y="911" on="0"/>
        <pt x="1370" y="767" on="0"/>
        <pt x="1324" y="604" on="1"/>
        <pt x="1229" y="264" on="0"/>
        <pt x="1162" y="45" on="1"/>
        <pt x="1152" y="13" on="0"/>
        <pt x="1105" y="-20" on="0"/>
        <pt x="1061" y="-20" on="1"/>
        <pt x="1015" y="-20" on="0"/>
        <pt x="961" y="42" on="0"/>
        <pt x="866" y="364" on="0"/>
        <pt x="789" y="735" on="0"/>
        <pt x="778" y="839" on="1"/>
        <pt x="741" y="794" on="0"/>
        <pt x="619" y="385" on="0"/>
        <pt x="557" y="132" on="1"/>
        <pt x="539" y="58" on="0"/>
        <pt x="484" y="-20" on="0"/>
        <pt x="440" y="-20" on="1"/>
        <pt x="391" y="-20" on="0"/>
        <pt x="341" y="34" on="0"/>
        <pt x="280" y="185" on="0"/>
        <pt x="209" y="436" on="0"/>
        <pt x="144" y="740" on="0"/>
        <pt x="102" y="1013" on="0"/>
        <pt x="100" y="1081" on="1"/>
        <pt x="263" y="1118" on="1"/>
        <pt x="279" y="936" on="0"/>
        <pt x="416" y="270" on="0"/>
        <pt x="453" y="204" on="1"/>
        <pt x="505" y="430" on="0"/>
        <pt x="643" y="843" on="0"/>
        <pt x="785" y="1118" on="0"/>
        <pt x="824" y="1118" on="1"/>
        <pt x="895" y="1118" on="0"/>
        <pt x="913" y="1019" on="1"/>
        <pt x="932" y="914" on="0"/>
        <pt x="1055" y="342" on="0"/>
        <pt x="1093" y="218" on="1"/>
        <pt x="1191" y="614" on="0"/>
        <pt x="1291" y="892" on="0"/>
        <pt x="1395" y="1043" on="0"/>
        <pt x="1528" y="1118" on="0"/>
        <pt x="1616" y="1118" on="1"/>
        <pt x="1750" y="1118" on="0"/>
        <pt x="1902" y="967" on="0"/>
        <pt x="1902" y="820" on="1"/>
        <pt x="1902" y="693" on="0"/>
      </contour>
    </TTGlyph>
    <TTGlyph name="uniAA84" xMin="100" yMin="-40" xMax="1970" yMax="1385">
      <contour>
        <pt x="1921" y="1322" on="1"/>
        <pt x="1741" y="1130" on="0"/>
        <pt x="1557" y="650" on="0"/>
        <pt x="1557" y="378" on="1"/>
        <pt x="1557" y="320" on="0"/>
        <pt x="1563" y="272" on="1"/>
        <pt x="1658" y="297" on="0"/>
        <pt x="1740" y="297" on="1"/>
        <pt x="1851" y="297" on="0"/>
        <pt x="1970" y="207" on="0"/>
        <pt x="1970" y="126" on="1"/>
        <pt x="1970" y="85" on="0"/>
        <pt x="1903" y="6" on="0"/>
        <pt x="1790" y="-40" on="0"/>
        <pt x="1723" y="-40" on="1"/>
        <pt x="1539" y="-40" on="0"/>
        <pt x="1448" y="103" on="1"/>
        <pt x="1332" y="43" on="0"/>
        <pt x="1225" y="4" on="0"/>
        <pt x="1114" y="-20" on="0"/>
        <pt x="1047" y="-20" on="1"/>
        <pt x="931" y="-20" on="0"/>
        <pt x="812" y="93" on="0"/>
        <pt x="812" y="196" on="1"/>
        <pt x="812" y="254" on="0"/>
        <pt x="842" y="404" on="0"/>
        <pt x="878" y="572" on="0"/>
        <pt x="908" y="753" on="0"/>
        <pt x="908" y="843" on="1"/>
        <pt x="908" y="898" on="0"/>
        <pt x="839" y="978" on="0"/>
        <pt x="790" y="978" on="1"/>
        <pt x="694" y="978" on="0"/>
        <pt x="544" y="881" on="0"/>
        <pt x="432" y="696" on="0"/>
        <pt x="345" y="387" on="0"/>
        <pt x="296" y="49" on="1"/>
        <pt x="100" y="-5" on="1"/>
        <pt x="137" y="326" on="0"/>
        <pt x="348" y="845" on="0"/>
        <pt x="651" y="1118" on="0"/>
        <pt x="832" y="1118" on="1"/>
        <pt x="950" y="1118" on="0"/>
        <pt x="1088" y="976" on="0"/>
        <pt x="1088" y="859" on="1"/>
        <pt x="1088" y="783" on="0"/>
        <pt x="1058" y="600" on="0"/>
        <pt x="1022" y="417" on="0"/>
        <pt x="992" y="251" on="0"/>
        <pt x="992" y="192" on="1"/>
        <pt x="992" y="158" on="0"/>
        <pt x="1028" y="120" on="0"/>
        <pt x="1080" y="120" on="1"/>
        <pt x="1115" y="120" on="0"/>
        <pt x="1184" y="132" on="0"/>
        <pt x="1264" y="157" on="0"/>
        <pt x="1398" y="213" on="1"/>
        <pt x="1377" y="286" on="0"/>
        <pt x="1377" y="371" on="1"/>
        <pt x="1377" y="630" on="0"/>
        <pt x="1644" y="1180" on="0"/>
        <pt x="1873" y="1385" on="1"/>
      </contour>
      <contour>
        <pt x="1728" y="187" on="1"/>
        <pt x="1661" y="187" on="0"/>
        <pt x="1591" y="165" on="1"/>
        <pt x="1632" y="70" on="0"/>
        <pt x="1729" y="70" on="1"/>
        <pt x="1820" y="70" on="0"/>
        <pt x="1820" y="124" on="1"/>
        <pt x="1820" y="155" on="0"/>
        <pt x="1770" y="187" on="0"/>
      </contour>
    </TTGlyph>
    <TTGlyph name="uniAA85" xMin="-50" yMin="-600" xMax="900" yMax="1118">
      <contour>
        <pt x="618" y="582" on="1"/>
        <pt x="649" y="588" on="0"/>
        <pt x="680" y="588" on="1"/>
        <pt x="737" y="588" on="0"/>
        <pt x="840" y="521" on="0"/>
        <pt x="900" y="401" on="0"/>
        <pt x="900" y="323" on="1"/>
        <pt x="900" y="51" on="0"/>
        <pt x="464" y="-401" on="0"/>
        <pt x="-3" y="-600" on="1"/>
        <pt x="-50" y="-523" on="1"/>
        <pt x="347" y="-356" on="0"/>
        <pt x="720" y="35" on="0"/>
        <pt x="720" y="289" on="1"/>
        <pt x="720" y="363" on="0"/>
        <pt x="635" y="457" on="0"/>
        <pt x="567" y="457" on="1"/>
        <pt x="517" y="457" on="0"/>
        <pt x="417" y="423" on="0"/>
        <pt x="383" y="399" on="1"/>
        <pt x="310" y="498" on="1"/>
        <pt x="419" y="561" on="0"/>
        <pt x="531" y="731" on="0"/>
        <pt x="531" y="832" on="1"/>
        <pt x="531" y="978" on="0"/>
        <pt x="380" y="978" on="1"/>
        <pt x="286" y="978" on="0"/>
        <pt x="188" y="889" on="0"/>
        <pt x="171" y="796" on="1"/>
        <pt x="70" y="796" on="1"/>
        <pt x="74" y="936" on="0"/>
        <pt x="256" y="1118" on="0"/>
        <pt x="392" y="1118" on="1"/>
        <pt x="547" y="1118" on="0"/>
        <pt x="711" y="976" on="0"/>
        <pt x="711" y="844" on="1"/>
        <pt x="711" y="773" on="0"/>
        <pt x="662" y="636" on="0"/>
      </contour>
    </TTGlyph>
    <TTGlyph name="uniAA86" xMin="30" yMin="-600" xMax="1040" yMax="1118">
      <contour>
        <pt x="515" y="427" on="1"/>
        <pt x="481" y="420" on="0"/>
        <pt x="438" y="420" on="1"/>
        <pt x="297" y="420" on="0"/>
        <pt x="100" y="605" on="0"/>
        <pt x="100" y="743" on="1"/>
        <pt x="100" y="846" on="0"/>
        <pt x="206" y="1020" on="0"/>
        <pt x="399" y="1118" on="0"/>
        <pt x="521" y="1118" on="1"/>
        <pt x="762" y="1118" on="0"/>
        <pt x="1040" y="811" on="0"/>
        <pt x="1040" y="535" on="1"/>
        <pt x="1040" y="305" on="0"/>
        <pt x="801" y="-131" on="0"/>
        <pt x="361" y="-489" on="0"/>
        <pt x="77" y="-600" on="1"/>
        <pt x="30" y="-523" on="1"/>
        <pt x="442" y="-349" on="0"/>
        <pt x="860" y="191" on="0"/>
        <pt x="860" y="540" on="1"/>
        <pt x="860" y="750" on="0"/>
        <pt x="686" y="978" on="0"/>
        <pt x="528" y="978" on="1"/>
        <pt x="417" y="978" on="0"/>
        <pt x="280" y="856" on="0"/>
        <pt x="280" y="745" on="1"/>
        <pt x="280" y="640" on="0"/>
        <pt x="365" y="530" on="0"/>
        <pt x="444" y="530" on="1"/>
        <pt x="470" y="530" on="0"/>
        <pt x="486" y="534" on="1"/>
      </contour>
    </TTGlyph>
    <TTGlyph name="uniAA87" xMin="120" yMin="-580" xMax="1330" yMax="1138">
      <contour>
        <pt x="376" y="68" on="1"/>
        <pt x="196" y="15" on="1"/>
        <pt x="161" y="111" on="0"/>
        <pt x="120" y="366" on="0"/>
        <pt x="120" y="481" on="1"/>
        <pt x="120" y="676" on="0"/>
        <pt x="248" y="973" on="0"/>
        <pt x="493" y="1138" on="0"/>
        <pt x="660" y="1138" on="1"/>
        <pt x="870" y="1138" on="0"/>
        <pt x="1010" y="976" on="1"/>
        <pt x="1142" y="1072" on="0"/>
        <pt x="1291" y="1138" on="1"/>
        <pt x="1330" y="1069" on="1"/>
        <pt x="1202" y="995" on="0"/>
        <pt x="1071" y="891" on="1"/>
        <pt x="1162" y="739" on="0"/>
        <pt x="1162" y="542" on="1"/>
        <pt x="1162" y="296" on="0"/>
        <pt x="985" y="-136" on="0"/>
        <pt x="644" y="-473" on="0"/>
        <pt x="400" y="-580" on="1"/>
        <pt x="353" y="-503" on="1"/>
        <pt x="677" y="-344" on="0"/>
        <pt x="982" y="156" on="0"/>
        <pt x="982" y="527" on="1"/>
        <pt x="982" y="672" on="0"/>
        <pt x="940" y="779" on="1"/>
        <pt x="594" y="465" on="0"/>
        <pt x="377" y="68" on="1"/>
      </contour>
      <contour>
        <pt x="300" y="527" on="1"/>
        <pt x="300" y="356" on="0"/>
        <pt x="322" y="235" on="1"/>
        <pt x="586" y="627" on="0"/>
        <pt x="886" y="880" on="1"/>
        <pt x="794" y="998" on="0"/>
        <pt x="641" y="998" on="1"/>
        <pt x="480" y="998" on="0"/>
        <pt x="300" y="747" on="0"/>
      </contour>
    </TTGlyph>
    <TTGlyph name="uniAA88" xMin="120" yMin="-40" xMax="2416" yMax="1385">
      <contour>
        <pt x="1559" y="1207" on="1"/>
        <pt x="1708" y="1151" on="0"/>
        <pt x="1837" y="1129" on="1"/>
        <pt x="1909" y="1253" on="0"/>
        <pt x="2108" y="1385" on="0"/>
        <pt x="2223" y="1385" on="1"/>
        <pt x="2313" y="1385" on="0"/>
        <pt x="2416" y="1306" on="0"/>
        <pt x="2416" y="1238" on="1"/>
        <pt x="2416" y="1140" on="0"/>
        <pt x="2189" y="1002" on="0"/>
        <pt x="2033" y="1002" on="1"/>
        <pt x="1982" y="1002" on="0"/>
        <pt x="1931" y="1008" on="1"/>
        <pt x="1893" y="861" on="0"/>
        <pt x="1893" y="660" on="1"/>
        <pt x="1893" y="385" on="0"/>
        <pt x="1912" y="273" on="1"/>
        <pt x="2010" y="297" on="0"/>
        <pt x="2090" y="297" on="1"/>
        <pt x="2201" y="297" on="0"/>
        <pt x="2320" y="207" on="0"/>
        <pt x="2320" y="126" on="1"/>
        <pt x="2320" y="60" on="0"/>
        <pt x="2187" y="-40" on="0"/>
        <pt x="2084" y="-40" on="1"/>
        <pt x="1915" y="-40" on="0"/>
        <pt x="1820" y="114" on="1"/>
        <pt x="1719" y="68" on="1"/>
        <pt x="1530" y="-20" on="0"/>
        <pt x="1380" y="-20" on="1"/>
        <pt x="1264" y="-20" on="0"/>
        <pt x="1145" y="93" on="0"/>
        <pt x="1145" y="196" on="1"/>
        <pt x="1145" y="254" on="0"/>
        <pt x="1166" y="407" on="0"/>
        <pt x="1190" y="579" on="0"/>
        <pt x="1211" y="764" on="0"/>
        <pt x="1211" y="854" on="1"/>
        <pt x="1211" y="908" on="0"/>
        <pt x="1142" y="978" on="0"/>
        <pt x="1093" y="978" on="1"/>
        <pt x="1042" y="978" on="0"/>
        <pt x="911" y="937" on="0"/>
        <pt x="864" y="907" on="1"/>
        <pt x="867" y="799" on="1"/>
        <pt x="867" y="426" on="0"/>
        <pt x="625" y="-20" on="0"/>
        <pt x="421" y="-20" on="1"/>
        <pt x="290" y="-20" on="0"/>
        <pt x="149" y="202" on="0"/>
        <pt x="149" y="399" on="1"/>
        <pt x="149" y="469" on="0"/>
        <pt x="156" y="612" on="1"/>
        <pt x="162" y="755" on="0"/>
        <pt x="162" y="824" on="1"/>
        <pt x="162" y="969" on="0"/>
        <pt x="120" y="1058" on="1"/>
        <pt x="297" y="1116" on="1"/>
        <pt x="342" y="1019" on="0"/>
        <pt x="342" y="855" on="1"/>
        <pt x="342" y="766" on="0"/>
        <pt x="329" y="544" on="0"/>
        <pt x="329" y="411" on="1"/>
        <pt x="329" y="255" on="0"/>
        <pt x="394" y="120" on="0"/>
        <pt x="458" y="120" on="1"/>
        <pt x="574" y="120" on="0"/>
        <pt x="687" y="391" on="0"/>
        <pt x="687" y="734" on="1"/>
        <pt x="687" y="894" on="0"/>
        <pt x="666" y="1036" on="1"/>
        <pt x="849" y="1098" on="1"/>
        <pt x="859" y="997" on="1"/>
        <pt x="928" y="1051" on="0"/>
        <pt x="1093" y="1118" on="0"/>
        <pt x="1152" y="1118" on="1"/>
        <pt x="1223" y="1118" on="0"/>
        <pt x="1330" y="1049" on="0"/>
        <pt x="1391" y="935" on="0"/>
        <pt x="1391" y="870" on="1"/>
        <pt x="1391" y="745" on="0"/>
        <pt x="1358" y="514" on="1"/>
        <pt x="1325" y="283" on="0"/>
        <pt x="1325" y="192" on="1"/>
        <pt x="1325" y="158" on="0"/>
        <pt x="1361" y="120" on="0"/>
        <pt x="1413" y="120" on="1"/>
        <pt x="1444" y="120" on="0"/>
        <pt x="1546" y="150" on="0"/>
        <pt x="1658" y="192" on="1"/>
        <pt x="1766" y="230" on="1"/>
        <pt x="1765" y="234" on="1"/>
        <pt x="1767" y="234" on="1"/>
        <pt x="1713" y="387" on="0"/>
        <pt x="1713" y="668" on="1"/>
        <pt x="1713" y="849" on="0"/>
        <pt x="1790" y="1033" on="1"/>
        <pt x="1632" y="1071" on="0"/>
        <pt x="1527" y="1137" on="1"/>
      </contour>
      <contour>
        <pt x="2182" y="1275" on="1"/>
        <pt x="2044" y="1275" on="0"/>
        <pt x="1968" y="1114" on="1"/>
        <pt x="2004" y="1112" on="1"/>
        <pt x="2038" y="1112" on="1"/>
        <pt x="2109" y="1112" on="0"/>
        <pt x="2212" y="1142" on="0"/>
        <pt x="2266" y="1192" on="0"/>
        <pt x="2266" y="1221" on="1"/>
        <pt x="2266" y="1249" on="0"/>
        <pt x="2227" y="1275" on="0"/>
      </contour>
      <contour>
        <pt x="2092" y="187" on="1"/>
        <pt x="2022" y="187" on="0"/>
        <pt x="1949" y="164" on="1"/>
        <pt x="1994" y="70" on="0"/>
        <pt x="2079" y="70" on="1"/>
        <pt x="2116" y="70" on="0"/>
        <pt x="2170" y="102" on="0"/>
        <pt x="2170" y="124" on="1"/>
        <pt x="2170" y="187" on="0"/>
      </contour>
    </TTGlyph>
    <TTGlyph name="uniAA89" xMin="120" yMin="-20" xMax="1060" yMax="1385">
      <contour>
        <pt x="451" y="668" on="1"/>
        <pt x="475" y="748" on="0"/>
        <pt x="620" y="854" on="0"/>
        <pt x="715" y="854" on="1"/>
        <pt x="815" y="854" on="0"/>
        <pt x="971" y="750" on="0"/>
        <pt x="1060" y="564" on="0"/>
        <pt x="1060" y="459" on="1"/>
        <pt x="1060" y="322" on="0"/>
        <pt x="941" y="102" on="0"/>
        <pt x="727" y="-20" on="0"/>
        <pt x="597" y="-20" on="1"/>
        <pt x="452" y="-20" on="0"/>
        <pt x="235" y="109" on="0"/>
        <pt x="120" y="347" on="0"/>
        <pt x="120" y="496" on="1"/>
        <pt x="120" y="710" on="0"/>
        <pt x="394" y="1147" on="0"/>
        <pt x="676" y="1385" on="1"/>
        <pt x="731" y="1334" on="1"/>
        <pt x="542" y="1153" on="0"/>
        <pt x="372" y="913" on="0"/>
        <pt x="300" y="657" on="0"/>
        <pt x="300" y="496" on="1"/>
        <pt x="300" y="312" on="0"/>
        <pt x="451" y="120" on="0"/>
        <pt x="599" y="120" on="1"/>
        <pt x="730" y="120" on="0"/>
        <pt x="880" y="302" on="0"/>
        <pt x="880" y="460" on="1"/>
        <pt x="880" y="595" on="0"/>
        <pt x="784" y="744" on="0"/>
        <pt x="700" y="744" on="1"/>
        <pt x="586" y="744" on="0"/>
        <pt x="552" y="623" on="1"/>
      </contour>
    </TTGlyph>
    <TTGlyph name="uniAA8A" xMin="120" yMin="-20" xMax="1625" yMax="2160">
      <contour>
        <pt x="287" y="1116" on="1"/>
        <pt x="397" y="883" on="0"/>
        <pt x="397" y="301" on="1"/>
        <pt x="397" y="229" on="0"/>
        <pt x="414" y="153" on="0"/>
        <pt x="452" y="120" on="0"/>
        <pt x="495" y="120" on="1"/>
        <pt x="527" y="120" on="0"/>
        <pt x="625" y="154" on="0"/>
        <pt x="743" y="207" on="1"/>
        <pt x="846" y="250" on="1"/>
        <pt x="823" y="318" on="0"/>
        <pt x="796" y="505" on="0"/>
        <pt x="796" y="598" on="1"/>
        <pt x="796" y="911" on="0"/>
        <pt x="986" y="1506" on="0"/>
        <pt x="1334" y="1984" on="0"/>
        <pt x="1577" y="2160" on="1"/>
        <pt x="1625" y="2087" on="1"/>
        <pt x="1436" y="1947" on="0"/>
        <pt x="1146" y="1486" on="0"/>
        <pt x="976" y="874" on="0"/>
        <pt x="976" y="598" on="1"/>
        <pt x="976" y="372" on="0"/>
        <pt x="994" y="294" on="1"/>
        <pt x="1051" y="305" on="0"/>
        <pt x="1101" y="305" on="1"/>
        <pt x="1219" y="305" on="0"/>
        <pt x="1353" y="211" on="0"/>
        <pt x="1353" y="133" on="1"/>
        <pt x="1353" y="68" on="0"/>
        <pt x="1240" y="-20" on="0"/>
        <pt x="1155" y="-20" on="1"/>
        <pt x="1007" y="-20" on="0"/>
        <pt x="899" y="144" on="1"/>
        <pt x="846" y="120" on="0"/>
        <pt x="740" y="63" on="0"/>
        <pt x="632" y="14" on="0"/>
        <pt x="520" y="-20" on="0"/>
        <pt x="462" y="-20" on="1"/>
        <pt x="334" y="-20" on="0"/>
        <pt x="217" y="124" on="0"/>
        <pt x="217" y="280" on="1"/>
        <pt x="217" y="517" on="0"/>
        <pt x="168" y="945" on="0"/>
        <pt x="120" y="1058" on="1"/>
      </contour>
      <contour>
        <pt x="1108" y="195" on="1"/>
        <pt x="1075" y="195" on="0"/>
        <pt x="1035" y="188" on="1"/>
        <pt x="1054" y="138" on="0"/>
        <pt x="1106" y="90" on="0"/>
        <pt x="1143" y="90" on="1"/>
        <pt x="1165" y="90" on="0"/>
        <pt x="1203" y="112" on="0"/>
        <pt x="1203" y="137" on="1"/>
        <pt x="1203" y="195" on="0"/>
      </contour>
    </TTGlyph>
    <TTGlyph name="uniAA8B" xMin="100" yMin="-600" xMax="1667" yMax="1118">
      <contour>
        <pt x="1251" y="1037" on="1"/>
        <pt x="1152" y="912" on="0"/>
        <pt x="1036" y="689" on="0"/>
        <pt x="983" y="470" on="0"/>
        <pt x="983" y="306" on="1"/>
        <pt x="983" y="45" on="0"/>
        <pt x="1339" y="-389" on="0"/>
        <pt x="1667" y="-523" on="1"/>
        <pt x="1620" y="-600" on="1"/>
        <pt x="1215" y="-445" on="0"/>
        <pt x="803" y="11" on="0"/>
        <pt x="803" y="298" on="1"/>
        <pt x="803" y="410" on="0"/>
        <pt x="885" y="678" on="0"/>
        <pt x="970" y="816" on="1"/>
        <pt x="928" y="882" on="0"/>
        <pt x="848" y="944" on="0"/>
        <pt x="740" y="978" on="0"/>
        <pt x="667" y="978" on="1"/>
        <pt x="576" y="978" on="0"/>
        <pt x="397" y="793" on="0"/>
        <pt x="280" y="494" on="0"/>
        <pt x="280" y="360" on="1"/>
        <pt x="280" y="237" on="0"/>
        <pt x="351" y="135" on="0"/>
        <pt x="424" y="135" on="1"/>
        <pt x="510" y="135" on="0"/>
        <pt x="592" y="241" on="1"/>
        <pt x="658" y="201" on="1"/>
        <pt x="619" y="123" on="0"/>
        <pt x="471" y="25" on="0"/>
        <pt x="390" y="25" on="1"/>
        <pt x="251" y="25" on="0"/>
        <pt x="100" y="200" on="0"/>
        <pt x="100" y="358" on="1"/>
        <pt x="100" y="527" on="0"/>
        <pt x="278" y="897" on="0"/>
        <pt x="549" y="1118" on="0"/>
        <pt x="691" y="1118" on="1"/>
        <pt x="765" y="1118" on="0"/>
        <pt x="883" y="1086" on="0"/>
        <pt x="982" y="1032" on="0"/>
        <pt x="1067" y="957" on="1"/>
        <pt x="1123" y="1027" on="0"/>
        <pt x="1188" y="1092" on="1"/>
      </contour>
    </TTGlyph>
    <TTGlyph name="uniAA8C" xMin="120" yMin="-20" xMax="1500" yMax="2160">
      <contour>
        <pt x="1058" y="1090" on="1"/>
        <pt x="1056" y="1088" on="1"/>
        <pt x="1020" y="1028" on="0"/>
        <pt x="976" y="751" on="0"/>
        <pt x="976" y="598" on="1"/>
        <pt x="976" y="372" on="0"/>
        <pt x="994" y="294" on="1"/>
        <pt x="1051" y="305" on="0"/>
        <pt x="1101" y="305" on="1"/>
        <pt x="1219" y="305" on="0"/>
        <pt x="1353" y="211" on="0"/>
        <pt x="1353" y="133" on="1"/>
        <pt x="1353" y="68" on="0"/>
        <pt x="1240" y="-20" on="0"/>
        <pt x="1155" y="-20" on="1"/>
        <pt x="1007" y="-20" on="0"/>
        <pt x="899" y="144" on="1"/>
        <pt x="846" y="120" on="0"/>
        <pt x="740" y="63" on="0"/>
        <pt x="632" y="14" on="0"/>
        <pt x="520" y="-20" on="0"/>
        <pt x="462" y="-20" on="1"/>
        <pt x="334" y="-20" on="0"/>
        <pt x="217" y="124" on="0"/>
        <pt x="217" y="280" on="1"/>
        <pt x="217" y="517" on="0"/>
        <pt x="168" y="945" on="0"/>
        <pt x="120" y="1058" on="1"/>
        <pt x="287" y="1116" on="1"/>
        <pt x="397" y="883" on="0"/>
        <pt x="397" y="301" on="1"/>
        <pt x="397" y="229" on="0"/>
        <pt x="414" y="153" on="0"/>
        <pt x="452" y="120" on="0"/>
        <pt x="495" y="120" on="1"/>
        <pt x="527" y="120" on="0"/>
        <pt x="625" y="154" on="0"/>
        <pt x="743" y="207" on="1"/>
        <pt x="846" y="250" on="1"/>
        <pt x="823" y="318" on="0"/>
        <pt x="796" y="505" on="0"/>
        <pt x="796" y="598" on="1"/>
        <pt x="796" y="831" on="0"/>
        <pt x="848" y="1052" on="1"/>
        <pt x="727" y="1078" on="0"/>
        <pt x="587" y="1273" on="0"/>
        <pt x="587" y="1410" on="1"/>
        <pt x="587" y="1594" on="0"/>
        <pt x="801" y="1902" on="0"/>
        <pt x="1221" y="2123" on="0"/>
        <pt x="1477" y="2160" on="1"/>
        <pt x="1500" y="2099" on="1"/>
        <pt x="770" y="1906" on="0"/>
        <pt x="770" y="1422" on="1"/>
        <pt x="770" y="1308" on="0"/>
        <pt x="862" y="1181" on="0"/>
        <pt x="948" y="1181" on="1"/>
        <pt x="963" y="1181" on="0"/>
        <pt x="985" y="1184" on="0"/>
        <pt x="1037" y="1197" on="1"/>
      </contour>
      <contour>
        <pt x="1108" y="195" on="1"/>
        <pt x="1075" y="195" on="0"/>
        <pt x="1035" y="188" on="1"/>
        <pt x="1054" y="138" on="0"/>
        <pt x="1106" y="90" on="0"/>
        <pt x="1143" y="90" on="1"/>
        <pt x="1165" y="90" on="0"/>
        <pt x="1203" y="112" on="0"/>
        <pt x="1203" y="137" on="1"/>
        <pt x="1203" y="195" on="0"/>
      </contour>
    </TTGlyph>
    <TTGlyph name="uniAA8D" xMin="120" yMin="-381" xMax="1500" yMax="2160">
      <contour>
        <pt x="1037" y="1197" on="1"/>
        <pt x="1056" y="1088" on="1"/>
        <pt x="1020" y="1028" on="0"/>
        <pt x="976" y="751" on="0"/>
        <pt x="976" y="598" on="1"/>
        <pt x="976" y="268" on="0"/>
        <pt x="1009" y="166" on="1"/>
        <pt x="1050" y="168" on="1"/>
        <pt x="1165" y="168" on="0"/>
        <pt x="1327" y="99" on="0"/>
        <pt x="1413" y="-25" on="0"/>
        <pt x="1413" y="-104" on="1"/>
        <pt x="1413" y="-232" on="0"/>
        <pt x="1241" y="-381" on="0"/>
        <pt x="1092" y="-381" on="1"/>
        <pt x="1019" y="-381" on="0"/>
        <pt x="872" y="-323" on="0"/>
        <pt x="819" y="-274" on="1"/>
        <pt x="864" y="-210" on="1"/>
        <pt x="952" y="-271" on="0"/>
        <pt x="1073" y="-271" on="1"/>
        <pt x="1155" y="-271" on="0"/>
        <pt x="1263" y="-193" on="0"/>
        <pt x="1263" y="-129" on="1"/>
        <pt x="1263" y="-54" on="0"/>
        <pt x="1139" y="26" on="0"/>
        <pt x="1037" y="26" on="1"/>
        <pt x="909" y="26" on="0"/>
        <pt x="752" y="3" on="1"/>
        <pt x="595" y="-20" on="0"/>
        <pt x="462" y="-20" on="1"/>
        <pt x="334" y="-20" on="0"/>
        <pt x="217" y="124" on="0"/>
        <pt x="217" y="280" on="1"/>
        <pt x="217" y="517" on="0"/>
        <pt x="168" y="945" on="0"/>
        <pt x="120" y="1058" on="1"/>
        <pt x="287" y="1116" on="1"/>
        <pt x="397" y="883" on="0"/>
        <pt x="397" y="301" on="1"/>
        <pt x="397" y="229" on="0"/>
        <pt x="414" y="153" on="0"/>
        <pt x="454" y="120" on="0"/>
        <pt x="500" y="120" on="1"/>
        <pt x="606" y="120" on="0"/>
        <pt x="764" y="145" on="1"/>
        <pt x="855" y="158" on="1"/>
        <pt x="829" y="220" on="0"/>
        <pt x="796" y="458" on="0"/>
        <pt x="796" y="598" on="1"/>
        <pt x="796" y="805" on="0"/>
        <pt x="848" y="1052" on="1"/>
        <pt x="727" y="1078" on="0"/>
        <pt x="587" y="1273" on="0"/>
        <pt x="587" y="1410" on="1"/>
        <pt x="587" y="1594" on="0"/>
        <pt x="801" y="1902" on="0"/>
        <pt x="1221" y="2123" on="0"/>
        <pt x="1477" y="2160" on="1"/>
        <pt x="1500" y="2099" on="1"/>
        <pt x="770" y="1906" on="0"/>
        <pt x="770" y="1422" on="1"/>
        <pt x="770" y="1308" on="0"/>
        <pt x="862" y="1181" on="0"/>
        <pt x="948" y="1181" on="1"/>
        <pt x="963" y="1181" on="0"/>
        <pt x="985" y="1184" on="0"/>
      </contour>
    </TTGlyph>
    <TTGlyph name="uniAA8E" xMin="120" yMin="-20" xMax="1175" yMax="1118">
      <contour>
        <pt x="120" y="29" on="1"/>
        <pt x="257" y="357" on="0"/>
        <pt x="518" y="639" on="1"/>
        <pt x="443" y="790" on="0"/>
        <pt x="274" y="944" on="0"/>
        <pt x="171" y="964" on="1"/>
        <pt x="234" y="1118" on="1"/>
        <pt x="356" y="1101" on="0"/>
        <pt x="548" y="933" on="0"/>
        <pt x="638" y="759" on="1"/>
        <pt x="869" y="976" on="0"/>
        <pt x="1137" y="1118" on="1"/>
        <pt x="1175" y="1039" on="1"/>
        <pt x="940" y="914" on="0"/>
        <pt x="698" y="632" on="1"/>
        <pt x="755" y="499" on="1"/>
        <pt x="856" y="262" on="0"/>
        <pt x="1013" y="90" on="0"/>
        <pt x="1111" y="90" on="1"/>
        <pt x="1126" y="90" on="1"/>
        <pt x="1140" y="91" on="1"/>
        <pt x="1124" y="-15" on="1"/>
        <pt x="1102" y="-20" on="0"/>
        <pt x="1086" y="-20" on="1"/>
        <pt x="1011" y="-20" on="0"/>
        <pt x="886" y="31" on="0"/>
        <pt x="782" y="125" on="0"/>
        <pt x="679" y="288" on="0"/>
        <pt x="588" y="492" on="1"/>
        <pt x="389" y="223" on="0"/>
        <pt x="314" y="-10" on="1"/>
      </contour>
    </TTGlyph>
    <TTGlyph name="uniAA8F" xMin="100" yMin="-40" xMax="2405" yMax="2160">
      <contour>
        <pt x="2405" y="2087" on="1"/>
        <pt x="2157" y="1922" on="0"/>
        <pt x="1767" y="1408" on="0"/>
        <pt x="1560" y="814" on="0"/>
        <pt x="1560" y="523" on="1"/>
        <pt x="1560" y="372" on="0"/>
        <pt x="1579" y="275" on="1"/>
        <pt x="1665" y="297" on="0"/>
        <pt x="1742" y="297" on="1"/>
        <pt x="1846" y="297" on="0"/>
        <pt x="1970" y="207" on="0"/>
        <pt x="1970" y="132" on="1"/>
        <pt x="1970" y="58" on="0"/>
        <pt x="1834" y="-40" on="0"/>
        <pt x="1738" y="-40" on="1"/>
        <pt x="1660" y="-40" on="0"/>
        <pt x="1518" y="32" on="0"/>
        <pt x="1467" y="112" on="1"/>
        <pt x="1376" y="67" on="1"/>
        <pt x="1204" y="-20" on="0"/>
        <pt x="1047" y="-20" on="1"/>
        <pt x="931" y="-20" on="0"/>
        <pt x="812" y="93" on="0"/>
        <pt x="812" y="196" on="1"/>
        <pt x="812" y="254" on="0"/>
        <pt x="842" y="404" on="0"/>
        <pt x="878" y="572" on="0"/>
        <pt x="908" y="753" on="0"/>
        <pt x="908" y="843" on="1"/>
        <pt x="908" y="898" on="0"/>
        <pt x="839" y="978" on="0"/>
        <pt x="790" y="978" on="1"/>
        <pt x="694" y="978" on="0"/>
        <pt x="544" y="881" on="0"/>
        <pt x="432" y="696" on="0"/>
        <pt x="345" y="387" on="0"/>
        <pt x="296" y="49" on="1"/>
        <pt x="100" y="-5" on="1"/>
        <pt x="137" y="326" on="0"/>
        <pt x="348" y="845" on="0"/>
        <pt x="651" y="1118" on="0"/>
        <pt x="832" y="1118" on="1"/>
        <pt x="950" y="1118" on="0"/>
        <pt x="1088" y="976" on="0"/>
        <pt x="1088" y="859" on="1"/>
        <pt x="1088" y="783" on="0"/>
        <pt x="1058" y="600" on="0"/>
        <pt x="1022" y="417" on="0"/>
        <pt x="992" y="251" on="0"/>
        <pt x="992" y="192" on="1"/>
        <pt x="992" y="158" on="0"/>
        <pt x="1028" y="120" on="0"/>
        <pt x="1080" y="120" on="1"/>
        <pt x="1179" y="120" on="0"/>
        <pt x="1331" y="184" on="1"/>
        <pt x="1417" y="220" on="1"/>
        <pt x="1380" y="331" on="0"/>
        <pt x="1380" y="486" on="1"/>
        <pt x="1380" y="799" on="0"/>
        <pt x="1615" y="1425" on="0"/>
        <pt x="2056" y="1963" on="0"/>
        <pt x="2357" y="2160" on="1"/>
      </contour>
      <contour>
        <pt x="1730" y="187" on="1"/>
        <pt x="1672" y="187" on="0"/>
        <pt x="1610" y="170" on="1"/>
        <pt x="1653" y="70" on="0"/>
        <pt x="1731" y="70" on="1"/>
        <pt x="1775" y="70" on="0"/>
        <pt x="1822" y="107" on="0"/>
        <pt x="1822" y="124" on="1"/>
        <pt x="1822" y="155" on="0"/>
        <pt x="1772" y="187" on="0"/>
      </contour>
    </TTGlyph>
    <TTGlyph name="uniAA90" xMin="120" yMin="-600" xMax="2132" yMax="1118">
      <contour>
        <pt x="849" y="1098" on="1"/>
        <pt x="859" y="997" on="1"/>
        <pt x="928" y="1051" on="0"/>
        <pt x="1093" y="1118" on="0"/>
        <pt x="1152" y="1118" on="1"/>
        <pt x="1223" y="1118" on="0"/>
        <pt x="1330" y="1049" on="0"/>
        <pt x="1391" y="935" on="0"/>
        <pt x="1391" y="870" on="1"/>
        <pt x="1391" y="757" on="0"/>
        <pt x="1346" y="510" on="1"/>
        <pt x="1300" y="263" on="0"/>
        <pt x="1300" y="184" on="1"/>
        <pt x="1300" y="132" on="0"/>
        <pt x="1338" y="132" on="1"/>
        <pt x="1443" y="132" on="0"/>
        <pt x="1623" y="516" on="0"/>
        <pt x="1709" y="944" on="1"/>
        <pt x="1724" y="1020" on="0"/>
        <pt x="1762" y="1083" on="0"/>
        <pt x="1817" y="1118" on="0"/>
        <pt x="1848" y="1118" on="1"/>
        <pt x="1926" y="1118" on="0"/>
        <pt x="2057" y="996" on="0"/>
        <pt x="2132" y="776" on="0"/>
        <pt x="2132" y="635" on="1"/>
        <pt x="2132" y="395" on="0"/>
        <pt x="1877" y="-94" on="0"/>
        <pt x="1426" y="-492" on="0"/>
        <pt x="1149" y="-600" on="1"/>
        <pt x="1102" y="-523" on="1"/>
        <pt x="1365" y="-412" on="0"/>
        <pt x="1746" y="-63" on="0"/>
        <pt x="1952" y="392" on="0"/>
        <pt x="1952" y="631" on="1"/>
        <pt x="1952" y="709" on="0"/>
        <pt x="1919" y="865" on="0"/>
        <pt x="1863" y="943" on="0"/>
        <pt x="1826" y="946" on="1"/>
        <pt x="1786" y="660" on="0"/>
        <pt x="1635" y="217" on="0"/>
        <pt x="1435" y="-8" on="0"/>
        <pt x="1314" y="-8" on="1"/>
        <pt x="1229" y="-8" on="0"/>
        <pt x="1120" y="104" on="0"/>
        <pt x="1120" y="188" on="1"/>
        <pt x="1120" y="246" on="0"/>
        <pt x="1148" y="401" on="0"/>
        <pt x="1183" y="577" on="0"/>
        <pt x="1211" y="764" on="0"/>
        <pt x="1211" y="854" on="1"/>
        <pt x="1211" y="908" on="0"/>
        <pt x="1142" y="978" on="0"/>
        <pt x="1093" y="978" on="1"/>
        <pt x="1042" y="978" on="0"/>
        <pt x="911" y="937" on="0"/>
        <pt x="864" y="907" on="1"/>
        <pt x="867" y="799" on="1"/>
        <pt x="867" y="426" on="0"/>
        <pt x="625" y="-20" on="0"/>
        <pt x="421" y="-20" on="1"/>
        <pt x="290" y="-20" on="0"/>
        <pt x="149" y="202" on="0"/>
        <pt x="149" y="399" on="1"/>
        <pt x="149" y="469" on="0"/>
        <pt x="156" y="612" on="1"/>
        <pt x="162" y="755" on="0"/>
        <pt x="162" y="824" on="1"/>
        <pt x="162" y="969" on="0"/>
        <pt x="120" y="1058" on="1"/>
        <pt x="297" y="1116" on="1"/>
        <pt x="342" y="1019" on="0"/>
        <pt x="342" y="855" on="1"/>
        <pt x="342" y="766" on="0"/>
        <pt x="329" y="544" on="0"/>
        <pt x="329" y="411" on="1"/>
        <pt x="329" y="255" on="0"/>
        <pt x="394" y="120" on="0"/>
        <pt x="458" y="120" on="1"/>
        <pt x="574" y="120" on="0"/>
        <pt x="687" y="391" on="0"/>
        <pt x="687" y="734" on="1"/>
        <pt x="687" y="894" on="0"/>
        <pt x="666" y="1036" on="1"/>
      </contour>
    </TTGlyph>
    <TTGlyph name="uniAA91" xMin="100" yMin="-600" xMax="1502" yMax="1118">
      <contour>
        <pt x="732" y="391" on="1"/>
        <pt x="798" y="616" on="0"/>
        <pt x="798" y="784" on="1"/>
        <pt x="798" y="978" on="0"/>
        <pt x="700" y="978" on="1"/>
        <pt x="565" y="978" on="0"/>
        <pt x="369" y="547" on="0"/>
        <pt x="296" y="49" on="1"/>
        <pt x="100" y="-5" on="1"/>
        <pt x="135" y="304" on="0"/>
        <pt x="322" y="825" on="0"/>
        <pt x="590" y="1118" on="0"/>
        <pt x="742" y="1118" on="1"/>
        <pt x="906" y="1118" on="0"/>
        <pt x="954" y="927" on="1"/>
        <pt x="1016" y="1020" on="0"/>
        <pt x="1160" y="1118" on="0"/>
        <pt x="1232" y="1118" on="1"/>
        <pt x="1362" y="1118" on="0"/>
        <pt x="1502" y="929" on="0"/>
        <pt x="1502" y="733" on="1"/>
        <pt x="1502" y="481" on="0"/>
        <pt x="1224" y="-72" on="0"/>
        <pt x="774" y="-498" on="0"/>
        <pt x="512" y="-600" on="1"/>
        <pt x="465" y="-523" on="1"/>
        <pt x="720" y="-415" on="0"/>
        <pt x="1101" y="-39" on="0"/>
        <pt x="1322" y="476" on="0"/>
        <pt x="1322" y="729" on="1"/>
        <pt x="1322" y="860" on="0"/>
        <pt x="1271" y="978" on="0"/>
        <pt x="1209" y="978" on="1"/>
        <pt x="1141" y="978" on="0"/>
        <pt x="1008" y="838" on="0"/>
        <pt x="972" y="741" on="1"/>
        <pt x="968" y="603" on="0"/>
        <pt x="908" y="391" on="1"/>
      </contour>
    </TTGlyph>
    <TTGlyph name="uniAA92" xMin="100" yMin="-30" xMax="1105" yMax="1118">
      <contour>
        <pt x="928" y="-8" on="1"/>
        <pt x="883" y="89" on="0"/>
        <pt x="883" y="253" on="1"/>
        <pt x="883" y="342" on="0"/>
        <pt x="896" y="554" on="0"/>
        <pt x="896" y="687" on="1"/>
        <pt x="896" y="847" on="0"/>
        <pt x="813" y="978" on="0"/>
        <pt x="727" y="978" on="1"/>
        <pt x="612" y="978" on="0"/>
        <pt x="404" y="822" on="0"/>
        <pt x="280" y="560" on="0"/>
        <pt x="280" y="418" on="1"/>
        <pt x="280" y="292" on="0"/>
        <pt x="360" y="110" on="0"/>
        <pt x="454" y="58" on="1"/>
        <pt x="397" y="-30" on="1"/>
        <pt x="258" y="17" on="0"/>
        <pt x="100" y="248" on="0"/>
        <pt x="100" y="409" on="1"/>
        <pt x="100" y="570" on="0"/>
        <pt x="286" y="907" on="0"/>
        <pt x="586" y="1118" on="0"/>
        <pt x="743" y="1118" on="1"/>
        <pt x="907" y="1118" on="0"/>
        <pt x="1076" y="904" on="0"/>
        <pt x="1076" y="699" on="1"/>
        <pt x="1076" y="598" on="0"/>
        <pt x="1063" y="384" on="0"/>
        <pt x="1063" y="284" on="1"/>
        <pt x="1063" y="138" on="0"/>
        <pt x="1105" y="49" on="1"/>
      </contour>
    </TTGlyph>
    <TTGlyph name="uniAA93" xMin="120" yMin="-600" xMax="2008" yMax="1118">
      <contour>
        <pt x="1961" y="-600" on="1"/>
        <pt x="1781" y="-511" on="0"/>
        <pt x="1626" y="-410" on="0"/>
        <pt x="1510" y="-299" on="0"/>
        <pt x="1432" y="-165" on="0"/>
        <pt x="1390" y="3" on="0"/>
        <pt x="1390" y="109" on="1"/>
        <pt x="1390" y="188" on="0"/>
        <pt x="1414" y="346" on="0"/>
        <pt x="1443" y="507" on="0"/>
        <pt x="1467" y="670" on="0"/>
        <pt x="1467" y="756" on="1"/>
        <pt x="1467" y="883" on="0"/>
        <pt x="1395" y="978" on="0"/>
        <pt x="1306" y="978" on="1"/>
        <pt x="1196" y="978" on="0"/>
        <pt x="1018" y="841" on="0"/>
        <pt x="916" y="595" on="0"/>
        <pt x="916" y="448" on="1"/>
        <pt x="916" y="355" on="0"/>
        <pt x="931" y="297" on="1"/>
        <pt x="977" y="305" on="0"/>
        <pt x="1023" y="305" on="1"/>
        <pt x="1143" y="305" on="0"/>
        <pt x="1285" y="210" on="0"/>
        <pt x="1285" y="133" on="1"/>
        <pt x="1285" y="68" on="0"/>
        <pt x="1172" y="-20" on="0"/>
        <pt x="1087" y="-20" on="1"/>
        <pt x="1012" y="-20" on="0"/>
        <pt x="867" y="69" on="0"/>
        <pt x="820" y="146" on="1"/>
        <pt x="764" y="122" on="0"/>
        <pt x="672" y="65" on="0"/>
        <pt x="583" y="14" on="0"/>
        <pt x="488" y="-20" on="0"/>
        <pt x="429" y="-20" on="1"/>
        <pt x="293" y="-20" on="0"/>
        <pt x="149" y="199" on="0"/>
        <pt x="149" y="399" on="1"/>
        <pt x="149" y="469" on="0"/>
        <pt x="156" y="612" on="1"/>
        <pt x="162" y="755" on="0"/>
        <pt x="162" y="824" on="1"/>
        <pt x="162" y="969" on="0"/>
        <pt x="120" y="1058" on="1"/>
        <pt x="297" y="1116" on="1"/>
        <pt x="342" y="1019" on="0"/>
        <pt x="342" y="855" on="1"/>
        <pt x="342" y="766" on="0"/>
        <pt x="329" y="544" on="0"/>
        <pt x="329" y="411" on="1"/>
        <pt x="329" y="259" on="0"/>
        <pt x="395" y="120" on="0"/>
        <pt x="462" y="120" on="1"/>
        <pt x="494" y="120" on="0"/>
        <pt x="582" y="155" on="0"/>
        <pt x="683" y="212" on="1"/>
        <pt x="769" y="256" on="1"/>
        <pt x="736" y="353" on="0"/>
        <pt x="736" y="454" on="1"/>
        <pt x="736" y="613" on="0"/>
        <pt x="898" y="921" on="0"/>
        <pt x="1174" y="1118" on="0"/>
        <pt x="1322" y="1118" on="1"/>
        <pt x="1485" y="1118" on="0"/>
        <pt x="1647" y="948" on="0"/>
        <pt x="1647" y="768" on="1"/>
        <pt x="1647" y="712" on="0"/>
        <pt x="1632" y="566" on="0"/>
        <pt x="1590" y="280" on="1"/>
        <pt x="1570" y="143" on="0"/>
        <pt x="1570" y="63" on="1"/>
        <pt x="1570" y="-79" on="0"/>
        <pt x="1649" y="-272" on="0"/>
        <pt x="1826" y="-429" on="0"/>
        <pt x="2008" y="-523" on="1"/>
      </contour>
      <contour>
        <pt x="1040" y="195" on="1"/>
        <pt x="1009" y="195" on="0"/>
        <pt x="967" y="188" on="1"/>
        <pt x="986" y="138" on="0"/>
        <pt x="1038" y="90" on="0"/>
        <pt x="1075" y="90" on="1"/>
        <pt x="1097" y="90" on="0"/>
        <pt x="1135" y="112" on="0"/>
        <pt x="1135" y="137" on="1"/>
        <pt x="1135" y="195" on="0"/>
      </contour>
    </TTGlyph>
    <TTGlyph name="uniAA94" xMin="100" yMin="-8" xMax="1521" yMax="1118">
      <contour>
        <pt x="732" y="391" on="1"/>
        <pt x="798" y="616" on="0"/>
        <pt x="798" y="784" on="1"/>
        <pt x="798" y="978" on="0"/>
        <pt x="700" y="978" on="1"/>
        <pt x="565" y="978" on="0"/>
        <pt x="369" y="547" on="0"/>
        <pt x="296" y="49" on="1"/>
        <pt x="100" y="-5" on="1"/>
        <pt x="135" y="304" on="0"/>
        <pt x="322" y="825" on="0"/>
        <pt x="590" y="1118" on="0"/>
        <pt x="742" y="1118" on="1"/>
        <pt x="906" y="1118" on="0"/>
        <pt x="954" y="927" on="1"/>
        <pt x="1016" y="1020" on="0"/>
        <pt x="1160" y="1118" on="0"/>
        <pt x="1232" y="1118" on="1"/>
        <pt x="1363" y="1118" on="0"/>
        <pt x="1492" y="930" on="0"/>
        <pt x="1492" y="732" on="1"/>
        <pt x="1492" y="606" on="0"/>
        <pt x="1479" y="384" on="0"/>
        <pt x="1479" y="284" on="1"/>
        <pt x="1479" y="139" on="0"/>
        <pt x="1521" y="50" on="1"/>
        <pt x="1344" y="-8" on="1"/>
        <pt x="1299" y="89" on="0"/>
        <pt x="1299" y="253" on="1"/>
        <pt x="1299" y="372" on="0"/>
        <pt x="1312" y="608" on="0"/>
        <pt x="1312" y="729" on="1"/>
        <pt x="1312" y="866" on="0"/>
        <pt x="1268" y="978" on="0"/>
        <pt x="1209" y="978" on="1"/>
        <pt x="1141" y="978" on="0"/>
        <pt x="1008" y="838" on="0"/>
        <pt x="972" y="741" on="1"/>
        <pt x="968" y="603" on="0"/>
        <pt x="908" y="391" on="1"/>
      </contour>
    </TTGlyph>
    <TTGlyph name="uniAA95" xMin="120" yMin="-20" xMax="1436" yMax="1116">
      <contour>
        <pt x="1259" y="-20" on="1"/>
        <pt x="1214" y="77" on="0"/>
        <pt x="1214" y="241" on="1"/>
        <pt x="1214" y="330" on="0"/>
        <pt x="1227" y="552" on="0"/>
        <pt x="1227" y="685" on="1"/>
        <pt x="1227" y="835" on="0"/>
        <pt x="1164" y="976" on="0"/>
        <pt x="1098" y="976" on="1"/>
        <pt x="1028" y="976" on="0"/>
        <pt x="911" y="777" on="0"/>
        <pt x="834" y="511" on="1"/>
        <pt x="796" y="382" on="1"/>
        <pt x="674" y="-20" on="0"/>
        <pt x="421" y="-20" on="1"/>
        <pt x="290" y="-20" on="0"/>
        <pt x="149" y="202" on="0"/>
        <pt x="149" y="399" on="1"/>
        <pt x="149" y="469" on="0"/>
        <pt x="156" y="612" on="1"/>
        <pt x="162" y="755" on="0"/>
        <pt x="162" y="824" on="1"/>
        <pt x="162" y="969" on="0"/>
        <pt x="120" y="1058" on="1"/>
        <pt x="297" y="1116" on="1"/>
        <pt x="342" y="1019" on="0"/>
        <pt x="342" y="855" on="1"/>
        <pt x="342" y="766" on="0"/>
        <pt x="329" y="544" on="0"/>
        <pt x="329" y="411" on="1"/>
        <pt x="329" y="255" on="0"/>
        <pt x="394" y="120" on="0"/>
        <pt x="458" y="120" on="1"/>
        <pt x="527" y="120" on="0"/>
        <pt x="648" y="327" on="0"/>
        <pt x="713" y="582" on="1"/>
        <pt x="787" y="870" on="0"/>
        <pt x="987" y="1116" on="0"/>
        <pt x="1135" y="1116" on="1"/>
        <pt x="1266" y="1116" on="0"/>
        <pt x="1407" y="894" on="0"/>
        <pt x="1407" y="697" on="1"/>
        <pt x="1407" y="627" on="0"/>
        <pt x="1401" y="484" on="1"/>
        <pt x="1394" y="341" on="0"/>
        <pt x="1394" y="272" on="1"/>
        <pt x="1394" y="127" on="0"/>
        <pt x="1436" y="38" on="1"/>
      </contour>
    </TTGlyph>
    <TTGlyph name="uniAA96" xMin="100" yMin="-600" xMax="1468" yMax="1118">
      <contour>
        <pt x="1421" y="-600" on="1"/>
        <pt x="1241" y="-511" on="0"/>
        <pt x="1086" y="-410" on="0"/>
        <pt x="970" y="-299" on="0"/>
        <pt x="892" y="-165" on="0"/>
        <pt x="850" y="3" on="0"/>
        <pt x="850" y="109" on="1"/>
        <pt x="850" y="188" on="0"/>
        <pt x="874" y="346" on="0"/>
        <pt x="903" y="507" on="0"/>
        <pt x="927" y="670" on="0"/>
        <pt x="927" y="756" on="1"/>
        <pt x="927" y="869" on="0"/>
        <pt x="826" y="978" on="0"/>
        <pt x="716" y="978" on="1"/>
        <pt x="614" y="978" on="0"/>
        <pt x="410" y="787" on="0"/>
        <pt x="280" y="488" on="0"/>
        <pt x="280" y="360" on="1"/>
        <pt x="280" y="237" on="0"/>
        <pt x="351" y="135" on="0"/>
        <pt x="424" y="135" on="1"/>
        <pt x="510" y="135" on="0"/>
        <pt x="592" y="241" on="1"/>
        <pt x="658" y="201" on="1"/>
        <pt x="619" y="123" on="0"/>
        <pt x="471" y="25" on="0"/>
        <pt x="390" y="25" on="1"/>
        <pt x="251" y="25" on="0"/>
        <pt x="100" y="200" on="0"/>
        <pt x="100" y="358" on="1"/>
        <pt x="100" y="523" on="0"/>
        <pt x="296" y="893" on="0"/>
        <pt x="596" y="1118" on="0"/>
        <pt x="751" y="1118" on="1"/>
        <pt x="925" y="1118" on="0"/>
        <pt x="1107" y="939" on="0"/>
        <pt x="1107" y="768" on="1"/>
        <pt x="1107" y="712" on="0"/>
        <pt x="1092" y="566" on="0"/>
        <pt x="1050" y="280" on="1"/>
        <pt x="1030" y="143" on="0"/>
        <pt x="1030" y="63" on="1"/>
        <pt x="1030" y="-79" on="0"/>
        <pt x="1109" y="-272" on="0"/>
        <pt x="1286" y="-429" on="0"/>
        <pt x="1468" y="-523" on="1"/>
      </contour>
    </TTGlyph>
    <TTGlyph name="uniAA97" xMin="120" yMin="-600" xMax="1232" yMax="1118">
      <contour>
        <pt x="342" y="857" on="1"/>
        <pt x="342" y="768" on="0"/>
        <pt x="329" y="556" on="0"/>
        <pt x="329" y="423" on="1"/>
        <pt x="329" y="287" on="0"/>
        <pt x="386" y="132" on="0"/>
        <pt x="438" y="132" on="1"/>
        <pt x="543" y="132" on="0"/>
        <pt x="723" y="516" on="0"/>
        <pt x="809" y="944" on="1"/>
        <pt x="824" y="1020" on="0"/>
        <pt x="862" y="1083" on="0"/>
        <pt x="917" y="1118" on="0"/>
        <pt x="948" y="1118" on="1"/>
        <pt x="1026" y="1118" on="0"/>
        <pt x="1157" y="996" on="0"/>
        <pt x="1232" y="776" on="0"/>
        <pt x="1232" y="635" on="1"/>
        <pt x="1232" y="395" on="0"/>
        <pt x="977" y="-94" on="0"/>
        <pt x="526" y="-492" on="0"/>
        <pt x="249" y="-600" on="1"/>
        <pt x="202" y="-523" on="1"/>
        <pt x="465" y="-412" on="0"/>
        <pt x="846" y="-63" on="0"/>
        <pt x="1052" y="392" on="0"/>
        <pt x="1052" y="631" on="1"/>
        <pt x="1052" y="709" on="0"/>
        <pt x="1019" y="865" on="0"/>
        <pt x="963" y="943" on="0"/>
        <pt x="926" y="946" on="1"/>
        <pt x="886" y="660" on="0"/>
        <pt x="735" y="217" on="0"/>
        <pt x="535" y="-8" on="0"/>
        <pt x="414" y="-8" on="1"/>
        <pt x="287" y="-8" on="0"/>
        <pt x="149" y="206" on="0"/>
        <pt x="149" y="411" on="1"/>
        <pt x="149" y="512" on="0"/>
        <pt x="162" y="726" on="0"/>
        <pt x="162" y="826" on="1"/>
        <pt x="162" y="971" on="0"/>
        <pt x="120" y="1060" on="1"/>
        <pt x="297" y="1118" on="1"/>
        <pt x="342" y="1021" on="0"/>
      </contour>
    </TTGlyph>
    <TTGlyph name="uniAA98" xMin="120" yMin="-40" xMax="2280" yMax="1385">
      <contour>
        <pt x="849" y="1098" on="1"/>
        <pt x="859" y="990" on="1"/>
        <pt x="933" y="1048" on="0"/>
        <pt x="1097" y="1118" on="0"/>
        <pt x="1162" y="1118" on="1"/>
        <pt x="1233" y="1118" on="0"/>
        <pt x="1340" y="1049" on="0"/>
        <pt x="1401" y="935" on="0"/>
        <pt x="1401" y="870" on="1"/>
        <pt x="1401" y="751" on="0"/>
        <pt x="1352" y="504" on="1"/>
        <pt x="1321" y="353" on="0"/>
        <pt x="1302" y="230" on="0"/>
        <pt x="1302" y="192" on="1"/>
        <pt x="1302" y="158" on="0"/>
        <pt x="1338" y="120" on="0"/>
        <pt x="1390" y="120" on="1"/>
        <pt x="1427" y="120" on="0"/>
        <pt x="1501" y="134" on="0"/>
        <pt x="1582" y="159" on="0"/>
        <pt x="1708" y="213" on="1"/>
        <pt x="1687" y="286" on="0"/>
        <pt x="1687" y="371" on="1"/>
        <pt x="1687" y="630" on="0"/>
        <pt x="1954" y="1180" on="0"/>
        <pt x="2183" y="1385" on="1"/>
        <pt x="2231" y="1322" on="1"/>
        <pt x="2051" y="1130" on="0"/>
        <pt x="1867" y="650" on="0"/>
        <pt x="1867" y="378" on="1"/>
        <pt x="1867" y="320" on="0"/>
        <pt x="1873" y="272" on="1"/>
        <pt x="1968" y="297" on="0"/>
        <pt x="2050" y="297" on="1"/>
        <pt x="2161" y="297" on="0"/>
        <pt x="2280" y="207" on="0"/>
        <pt x="2280" y="126" on="1"/>
        <pt x="2280" y="85" on="0"/>
        <pt x="2213" y="6" on="0"/>
        <pt x="2100" y="-40" on="0"/>
        <pt x="2033" y="-40" on="1"/>
        <pt x="1849" y="-40" on="0"/>
        <pt x="1758" y="103" on="1"/>
        <pt x="1620" y="29" on="0"/>
        <pt x="1448" y="-20" on="0"/>
        <pt x="1357" y="-20" on="1"/>
        <pt x="1241" y="-20" on="0"/>
        <pt x="1122" y="93" on="0"/>
        <pt x="1122" y="196" on="1"/>
        <pt x="1122" y="259" on="0"/>
        <pt x="1153" y="421" on="0"/>
        <pt x="1190" y="597" on="0"/>
        <pt x="1221" y="775" on="0"/>
        <pt x="1221" y="854" on="1"/>
        <pt x="1221" y="908" on="0"/>
        <pt x="1152" y="978" on="0"/>
        <pt x="1103" y="978" on="1"/>
        <pt x="1048" y="978" on="0"/>
        <pt x="907" y="930" on="0"/>
        <pt x="865" y="901" on="1"/>
        <pt x="867" y="799" on="1"/>
        <pt x="867" y="426" on="0"/>
        <pt x="625" y="-20" on="0"/>
        <pt x="421" y="-20" on="1"/>
        <pt x="290" y="-20" on="0"/>
        <pt x="149" y="202" on="0"/>
        <pt x="149" y="399" on="1"/>
        <pt x="149" y="469" on="0"/>
        <pt x="156" y="612" on="1"/>
        <pt x="162" y="755" on="0"/>
        <pt x="162" y="824" on="1"/>
        <pt x="162" y="969" on="0"/>
        <pt x="120" y="1058" on="1"/>
        <pt x="297" y="1116" on="1"/>
        <pt x="342" y="1019" on="0"/>
        <pt x="342" y="855" on="1"/>
        <pt x="342" y="766" on="0"/>
        <pt x="329" y="544" on="0"/>
        <pt x="329" y="411" on="1"/>
        <pt x="329" y="255" on="0"/>
        <pt x="394" y="120" on="0"/>
        <pt x="458" y="120" on="1"/>
        <pt x="574" y="120" on="0"/>
        <pt x="687" y="391" on="0"/>
        <pt x="687" y="734" on="1"/>
        <pt x="687" y="894" on="0"/>
        <pt x="666" y="1036" on="1"/>
      </contour>
      <contour>
        <pt x="2038" y="187" on="1"/>
        <pt x="1971" y="187" on="0"/>
        <pt x="1901" y="165" on="1"/>
        <pt x="1942" y="70" on="0"/>
        <pt x="2039" y="70" on="1"/>
        <pt x="2130" y="70" on="0"/>
        <pt x="2130" y="124" on="1"/>
        <pt x="2130" y="155" on="0"/>
        <pt x="2080" y="187" on="0"/>
      </contour>
    </TTGlyph>
    <TTGlyph name="uniAA99" xMin="120" yMin="-40" xMax="1357" yMax="1385">
      <contour>
        <pt x="835" y="103" on="1"/>
        <pt x="743" y="54" on="0"/>
        <pt x="520" y="-20" on="0"/>
        <pt x="447" y="-20" on="1"/>
        <pt x="339" y="-20" on="0"/>
        <pt x="212" y="103" on="0"/>
        <pt x="212" y="215" on="1"/>
        <pt x="212" y="263" on="0"/>
        <pt x="226" y="360" on="1"/>
        <pt x="239" y="456" on="0"/>
        <pt x="239" y="502" on="1"/>
        <pt x="239" y="590" on="0"/>
        <pt x="207" y="833" on="0"/>
        <pt x="155" y="1005" on="0"/>
        <pt x="120" y="1058" on="1"/>
        <pt x="287" y="1116" on="1"/>
        <pt x="347" y="1010" on="0"/>
        <pt x="419" y="677" on="0"/>
        <pt x="419" y="499" on="1"/>
        <pt x="419" y="427" on="0"/>
        <pt x="406" y="323" on="1"/>
        <pt x="392" y="218" on="0"/>
        <pt x="392" y="197" on="1"/>
        <pt x="392" y="154" on="0"/>
        <pt x="424" y="120" on="0"/>
        <pt x="469" y="120" on="1"/>
        <pt x="507" y="120" on="0"/>
        <pt x="585" y="136" on="0"/>
        <pt x="666" y="161" on="0"/>
        <pt x="785" y="213" on="1"/>
        <pt x="764" y="286" on="0"/>
        <pt x="764" y="371" on="1"/>
        <pt x="764" y="630" on="0"/>
        <pt x="1031" y="1180" on="0"/>
        <pt x="1260" y="1385" on="1"/>
        <pt x="1308" y="1322" on="1"/>
        <pt x="1128" y="1130" on="0"/>
        <pt x="944" y="650" on="0"/>
        <pt x="944" y="378" on="1"/>
        <pt x="944" y="320" on="0"/>
        <pt x="950" y="272" on="1"/>
        <pt x="1045" y="297" on="0"/>
        <pt x="1127" y="297" on="1"/>
        <pt x="1238" y="297" on="0"/>
        <pt x="1357" y="207" on="0"/>
        <pt x="1357" y="126" on="1"/>
        <pt x="1357" y="85" on="0"/>
        <pt x="1290" y="6" on="0"/>
        <pt x="1177" y="-40" on="0"/>
        <pt x="1110" y="-40" on="1"/>
        <pt x="926" y="-40" on="0"/>
      </contour>
      <contour>
        <pt x="1115" y="187" on="1"/>
        <pt x="1048" y="187" on="0"/>
        <pt x="978" y="165" on="1"/>
        <pt x="1019" y="70" on="0"/>
        <pt x="1116" y="70" on="1"/>
        <pt x="1207" y="70" on="0"/>
        <pt x="1207" y="124" on="1"/>
        <pt x="1207" y="155" on="0"/>
        <pt x="1157" y="187" on="0"/>
      </contour>
    </TTGlyph>
    <TTGlyph name="uniAA9A" xMin="80" yMin="-20" xMax="1138" yMax="1385">
      <contour>
        <pt x="470" y="-20" on="1"/>
        <pt x="435" y="-20" on="0"/>
        <pt x="387" y="-1" on="0"/>
        <pt x="366" y="35" on="1"/>
        <pt x="328" y="97" on="0"/>
        <pt x="211" y="453" on="0"/>
        <pt x="92" y="954" on="0"/>
        <pt x="80" y="1081" on="1"/>
        <pt x="243" y="1118" on="1"/>
        <pt x="255" y="1009" on="0"/>
        <pt x="342" y="620" on="0"/>
        <pt x="445" y="270" on="0"/>
        <pt x="470" y="225" on="1"/>
        <pt x="532" y="465" on="0"/>
        <pt x="606" y="690" on="0"/>
        <pt x="700" y="902" on="0"/>
        <pt x="823" y="1104" on="0"/>
        <pt x="984" y="1297" on="0"/>
        <pt x="1090" y="1385" on="1"/>
        <pt x="1138" y="1322" on="1"/>
        <pt x="972" y="1160" on="0"/>
        <pt x="706" y="590" on="0"/>
        <pt x="613" y="193" on="1"/>
        <pt x="590" y="96" on="0"/>
        <pt x="556" y="15" on="0"/>
        <pt x="506" y="-20" on="0"/>
      </contour>
    </TTGlyph>
    <TTGlyph name="uniAA9B" xMin="100" yMin="-20" xMax="2417" yMax="1385">
      <contour>
        <pt x="1749" y="-20" on="1"/>
        <pt x="1694" y="-20" on="0"/>
        <pt x="1630" y="47" on="0"/>
        <pt x="1558" y="213" on="0"/>
        <pt x="1480" y="472" on="0"/>
        <pt x="1424" y="743" on="0"/>
        <pt x="1417" y="839" on="1"/>
        <pt x="1367" y="768" on="0"/>
        <pt x="1229" y="276" on="1"/>
        <pt x="1162" y="45" on="1"/>
        <pt x="1152" y="13" on="0"/>
        <pt x="1105" y="-20" on="0"/>
        <pt x="1061" y="-20" on="1"/>
        <pt x="1015" y="-20" on="0"/>
        <pt x="961" y="42" on="0"/>
        <pt x="866" y="364" on="0"/>
        <pt x="789" y="735" on="0"/>
        <pt x="778" y="839" on="1"/>
        <pt x="741" y="794" on="0"/>
        <pt x="619" y="385" on="0"/>
        <pt x="557" y="132" on="1"/>
        <pt x="539" y="58" on="0"/>
        <pt x="484" y="-20" on="0"/>
        <pt x="440" y="-20" on="1"/>
        <pt x="391" y="-20" on="0"/>
        <pt x="341" y="34" on="0"/>
        <pt x="280" y="185" on="0"/>
        <pt x="209" y="436" on="0"/>
        <pt x="144" y="740" on="0"/>
        <pt x="102" y="1013" on="0"/>
        <pt x="100" y="1081" on="1"/>
        <pt x="263" y="1118" on="1"/>
        <pt x="279" y="936" on="0"/>
        <pt x="416" y="270" on="0"/>
        <pt x="453" y="204" on="1"/>
        <pt x="505" y="430" on="0"/>
        <pt x="643" y="843" on="0"/>
        <pt x="785" y="1118" on="0"/>
        <pt x="824" y="1118" on="1"/>
        <pt x="895" y="1118" on="0"/>
        <pt x="913" y="1019" on="1"/>
        <pt x="932" y="914" on="0"/>
        <pt x="1055" y="342" on="0"/>
        <pt x="1093" y="218" on="1"/>
        <pt x="1131" y="404" on="0"/>
        <pt x="1277" y="834" on="0"/>
        <pt x="1425" y="1118" on="0"/>
        <pt x="1463" y="1118" on="1"/>
        <pt x="1534" y="1118" on="0"/>
        <pt x="1552" y="1019" on="1"/>
        <pt x="1568" y="929" on="1"/>
        <pt x="1654" y="412" on="0"/>
        <pt x="1749" y="225" on="1"/>
        <pt x="1811" y="465" on="0"/>
        <pt x="1885" y="690" on="0"/>
        <pt x="1979" y="902" on="0"/>
        <pt x="2102" y="1104" on="0"/>
        <pt x="2263" y="1297" on="0"/>
        <pt x="2369" y="1385" on="1"/>
        <pt x="2417" y="1322" on="1"/>
        <pt x="2251" y="1160" on="0"/>
        <pt x="1985" y="590" on="0"/>
        <pt x="1892" y="193" on="1"/>
        <pt x="1869" y="96" on="0"/>
        <pt x="1835" y="15" on="0"/>
        <pt x="1785" y="-20" on="0"/>
      </contour>
    </TTGlyph>
    <TTGlyph name="uniAA9C" xMin="80" yMin="-20" xMax="1928" yMax="2160">
      <contour>
        <pt x="470" y="-20" on="1"/>
        <pt x="435" y="-20" on="0"/>
        <pt x="387" y="-1" on="0"/>
        <pt x="366" y="35" on="1"/>
        <pt x="328" y="97" on="0"/>
        <pt x="211" y="453" on="0"/>
        <pt x="92" y="954" on="0"/>
        <pt x="80" y="1081" on="1"/>
        <pt x="243" y="1118" on="1"/>
        <pt x="255" y="1009" on="0"/>
        <pt x="342" y="620" on="0"/>
        <pt x="445" y="270" on="0"/>
        <pt x="470" y="225" on="1"/>
        <pt x="577" y="631" on="0"/>
        <pt x="935" y="1294" on="0"/>
        <pt x="1477" y="1874" on="0"/>
        <pt x="1880" y="2160" on="1"/>
        <pt x="1928" y="2087" on="1"/>
        <pt x="1680" y="1900" on="0"/>
        <pt x="1277" y="1497" on="0"/>
        <pt x="984" y="1089" on="0"/>
        <pt x="766" y="640" on="0"/>
        <pt x="663" y="306" on="1"/>
        <pt x="615" y="153" on="0"/>
        <pt x="566" y="31" on="0"/>
        <pt x="507" y="-20" on="0"/>
      </contour>
    </TTGlyph>
    <TTGlyph name="uniAA9D" xMin="100" yMin="-20" xMax="2537" yMax="2160">
      <contour>
        <pt x="1061" y="-20" on="1"/>
        <pt x="1015" y="-20" on="0"/>
        <pt x="961" y="42" on="0"/>
        <pt x="866" y="364" on="0"/>
        <pt x="789" y="735" on="0"/>
        <pt x="778" y="839" on="1"/>
        <pt x="741" y="794" on="0"/>
        <pt x="619" y="385" on="0"/>
        <pt x="557" y="132" on="1"/>
        <pt x="539" y="58" on="0"/>
        <pt x="484" y="-20" on="0"/>
        <pt x="440" y="-20" on="1"/>
        <pt x="391" y="-20" on="0"/>
        <pt x="341" y="34" on="0"/>
        <pt x="280" y="185" on="0"/>
        <pt x="209" y="436" on="0"/>
        <pt x="144" y="740" on="0"/>
        <pt x="102" y="1013" on="0"/>
        <pt x="100" y="1081" on="1"/>
        <pt x="263" y="1118" on="1"/>
        <pt x="279" y="936" on="0"/>
        <pt x="416" y="270" on="0"/>
        <pt x="453" y="204" on="1"/>
        <pt x="505" y="430" on="0"/>
        <pt x="643" y="843" on="0"/>
        <pt x="785" y="1118" on="0"/>
        <pt x="824" y="1118" on="1"/>
        <pt x="895" y="1118" on="0"/>
        <pt x="913" y="1019" on="1"/>
        <pt x="934" y="903" on="0"/>
        <pt x="1049" y="366" on="0"/>
        <pt x="1085" y="249" on="1"/>
        <pt x="1109" y="331" on="1"/>
        <pt x="1147" y="466" on="0"/>
        <pt x="1208" y="623" on="1"/>
        <pt x="1376" y="1065" on="0"/>
        <pt x="1975" y="1794" on="0"/>
        <pt x="2489" y="2160" on="1"/>
        <pt x="2537" y="2087" on="1"/>
        <pt x="2084" y="1745" on="0"/>
        <pt x="1499" y="994" on="0"/>
        <pt x="1351" y="545" on="1"/>
        <pt x="1214" y="127" on="0"/>
        <pt x="1181" y="51" on="1"/>
        <pt x="1167" y="18" on="0"/>
        <pt x="1104" y="-20" on="0"/>
      </contour>
    </TTGlyph>
    <TTGlyph name="uniAA9E" xMin="-23" yMin="-20" xMax="1736" yMax="2160">
      <contour>
        <pt x="1105" y="907" on="1"/>
        <pt x="1023" y="993" on="1"/>
        <pt x="976" y="807" on="0"/>
        <pt x="976" y="598" on="1"/>
        <pt x="976" y="372" on="0"/>
        <pt x="994" y="294" on="1"/>
        <pt x="1051" y="305" on="0"/>
        <pt x="1101" y="305" on="1"/>
        <pt x="1219" y="305" on="0"/>
        <pt x="1353" y="211" on="0"/>
        <pt x="1353" y="133" on="1"/>
        <pt x="1353" y="68" on="0"/>
        <pt x="1240" y="-20" on="0"/>
        <pt x="1155" y="-20" on="1"/>
        <pt x="1007" y="-20" on="0"/>
        <pt x="899" y="144" on="1"/>
        <pt x="846" y="120" on="0"/>
        <pt x="740" y="63" on="0"/>
        <pt x="632" y="14" on="0"/>
        <pt x="520" y="-20" on="0"/>
        <pt x="462" y="-20" on="1"/>
        <pt x="334" y="-20" on="0"/>
        <pt x="217" y="124" on="0"/>
        <pt x="217" y="280" on="1"/>
        <pt x="217" y="496" on="0"/>
        <pt x="176" y="893" on="0"/>
        <pt x="139" y="1007" on="1"/>
        <pt x="25" y="920" on="1"/>
        <pt x="-23" y="985" on="1"/>
        <pt x="501" y="1437" on="1"/>
        <pt x="604" y="1528" on="0"/>
        <pt x="650" y="1528" on="1"/>
        <pt x="664" y="1528" on="0"/>
        <pt x="693" y="1516" on="0"/>
        <pt x="736" y="1484" on="0"/>
        <pt x="776" y="1443" on="0"/>
        <pt x="967" y="1206" on="1"/>
        <pt x="1003" y="1272" on="0"/>
        <pt x="1049" y="1344" on="1"/>
        <pt x="980" y="1381" on="0"/>
        <pt x="905" y="1503" on="0"/>
        <pt x="905" y="1604" on="1"/>
        <pt x="905" y="1731" on="0"/>
        <pt x="1092" y="1950" on="0"/>
        <pt x="1469" y="2118" on="0"/>
        <pt x="1716" y="2160" on="1"/>
        <pt x="1736" y="2093" on="1"/>
        <pt x="1474" y="2021" on="0"/>
        <pt x="1203" y="1892" on="0"/>
        <pt x="1085" y="1738" on="0"/>
        <pt x="1085" y="1624" on="1"/>
        <pt x="1085" y="1548" on="0"/>
        <pt x="1159" y="1436" on="0"/>
        <pt x="1212" y="1420" on="1"/>
        <pt x="1110" y="1262" on="0"/>
        <pt x="1055" y="1098" on="1"/>
        <pt x="1167" y="960" on="1"/>
      </contour>
      <contour>
        <pt x="796" y="598" on="1"/>
        <pt x="796" y="847" on="0"/>
        <pt x="917" y="1105" on="1"/>
        <pt x="777" y="1253" on="1"/>
        <pt x="693" y="1343" on="0"/>
        <pt x="636" y="1343" on="1"/>
        <pt x="580" y="1343" on="0"/>
        <pt x="471" y="1260" on="1"/>
        <pt x="278" y="1113" on="1"/>
        <pt x="287" y="1116" on="1"/>
        <pt x="397" y="883" on="0"/>
        <pt x="397" y="301" on="1"/>
        <pt x="397" y="229" on="0"/>
        <pt x="414" y="153" on="0"/>
        <pt x="452" y="120" on="0"/>
        <pt x="495" y="120" on="1"/>
        <pt x="527" y="120" on="0"/>
        <pt x="625" y="154" on="0"/>
        <pt x="743" y="207" on="1"/>
        <pt x="846" y="250" on="1"/>
        <pt x="823" y="318" on="0"/>
        <pt x="796" y="505" on="0"/>
      </contour>
      <contour>
        <pt x="1108" y="195" on="1"/>
        <pt x="1075" y="195" on="0"/>
        <pt x="1035" y="188" on="1"/>
        <pt x="1054" y="138" on="0"/>
        <pt x="1106" y="90" on="0"/>
        <pt x="1143" y="90" on="1"/>
        <pt x="1165" y="90" on="0"/>
        <pt x="1203" y="112" on="0"/>
        <pt x="1203" y="137" on="1"/>
        <pt x="1203" y="195" on="0"/>
      </contour>
    </TTGlyph>
    <TTGlyph name="uniAA9F" xMin="100" yMin="-380" xMax="2537" yMax="2161">
      <contour>
        <pt x="2345" y="1943" on="0"/>
        <pt x="2040" y="1661" on="0"/>
        <pt x="1800" y="1389" on="0"/>
        <pt x="1618" y="1129" on="0"/>
        <pt x="1483" y="883" on="0"/>
        <pt x="1386" y="652" on="0"/>
        <pt x="1351" y="546" on="1"/>
        <pt x="1332" y="489" on="0"/>
        <pt x="1294" y="372" on="0"/>
        <pt x="1256" y="261" on="0"/>
        <pt x="1222" y="162" on="0"/>
        <pt x="1208" y="123" on="1"/>
        <pt x="1284" y="122" on="0"/>
        <pt x="1404" y="85" on="0"/>
        <pt x="1488" y="22" on="0"/>
        <pt x="1533" y="-65" on="0"/>
        <pt x="1533" y="-115" on="1"/>
        <pt x="1533" y="-166" on="0"/>
        <pt x="1498" y="-261" on="0"/>
        <pt x="1419" y="-335" on="0"/>
        <pt x="1292" y="-380" on="0"/>
        <pt x="1199" y="-380" on="1"/>
        <pt x="1159" y="-380" on="0"/>
        <pt x="1085" y="-362" on="0"/>
        <pt x="1019" y="-332" on="0"/>
        <pt x="962" y="-294" on="0"/>
        <pt x="939" y="-274" on="1"/>
        <pt x="984" y="-210" on="1"/>
        <pt x="1022" y="-239" on="0"/>
        <pt x="1131" y="-270" on="0"/>
        <pt x="1181" y="-270" on="1"/>
        <pt x="1214" y="-270" on="0"/>
        <pt x="1285" y="-260" on="0"/>
        <pt x="1344" y="-230" on="0"/>
        <pt x="1383" y="-174" on="0"/>
        <pt x="1383" y="-128" on="1"/>
        <pt x="1383" y="-98" on="0"/>
        <pt x="1351" y="-51" on="0"/>
        <pt x="1295" y="-20" on="0"/>
        <pt x="1221" y="-4" on="0"/>
        <pt x="1178" y="-4" on="1"/>
        <pt x="1148" y="-4" on="0"/>
        <pt x="1120" y="-7" on="1"/>
        <pt x="1104" y="-14" on="0"/>
        <pt x="1074" y="-19" on="0"/>
        <pt x="1061" y="-19" on="1"/>
        <pt x="1034" y="-19" on="0"/>
        <pt x="987" y="7" on="0"/>
        <pt x="974" y="34" on="1"/>
        <pt x="955" y="74" on="0"/>
        <pt x="915" y="197" on="0"/>
        <pt x="875" y="344" on="0"/>
        <pt x="837" y="503" on="0"/>
        <pt x="806" y="656" on="0"/>
        <pt x="783" y="791" on="0"/>
        <pt x="778" y="840" on="1"/>
        <pt x="764" y="823" on="0"/>
        <pt x="730" y="745" on="0"/>
        <pt x="694" y="639" on="0"/>
        <pt x="657" y="513" on="0"/>
        <pt x="622" y="385" on="0"/>
        <pt x="590" y="264" on="0"/>
        <pt x="565" y="166" on="0"/>
        <pt x="549" y="100" on="0"/>
        <pt x="546" y="92" on="1"/>
        <pt x="531" y="45" on="0"/>
        <pt x="481" y="-19" on="0"/>
        <pt x="440" y="-19" on="1"/>
        <pt x="413" y="-19" on="0"/>
        <pt x="367" y="0" on="0"/>
        <pt x="346" y="36" on="1"/>
        <pt x="318" y="84" on="0"/>
        <pt x="261" y="249" on="0"/>
        <pt x="207" y="449" on="0"/>
        <pt x="160" y="666" on="0"/>
        <pt x="124" y="866" on="0"/>
        <pt x="101" y="1033" on="0"/>
        <pt x="100" y="1082" on="1"/>
        <pt x="263" y="1119" on="1"/>
        <pt x="267" y="1076" on="0"/>
        <pt x="283" y="960" on="0"/>
        <pt x="304" y="827" on="0"/>
        <pt x="331" y="684" on="0"/>
        <pt x="360" y="543" on="0"/>
        <pt x="389" y="412" on="0"/>
        <pt x="417" y="304" on="0"/>
        <pt x="443" y="224" on="0"/>
        <pt x="453" y="205" on="1"/>
        <pt x="482" y="332" on="0"/>
        <pt x="549" y="566" on="0"/>
        <pt x="619" y="769" on="0"/>
        <pt x="689" y="935" on="0"/>
        <pt x="752" y="1054" on="0"/>
        <pt x="805" y="1119" on="0"/>
        <pt x="824" y="1119" on="1"/>
        <pt x="865" y="1119" on="0"/>
        <pt x="905" y="1065" on="0"/>
        <pt x="913" y="1020" on="1"/>
        <pt x="920" y="981" on="0"/>
        <pt x="944" y="860" on="0"/>
        <pt x="974" y="717" on="0"/>
        <pt x="1007" y="563" on="0"/>
        <pt x="1040" y="419" on="0"/>
        <pt x="1072" y="293" on="0"/>
        <pt x="1085" y="250" on="1"/>
        <pt x="1098" y="293" on="0"/>
        <pt x="1120" y="371" on="0"/>
        <pt x="1147" y="456" on="0"/>
        <pt x="1182" y="557" on="0"/>
        <pt x="1208" y="624" on="1"/>
        <pt x="1305" y="879" on="0"/>
        <pt x="1566" y="1306" on="0"/>
        <pt x="1888" y="1677" on="0"/>
        <pt x="2270" y="2005" on="0"/>
        <pt x="2489" y="2161" on="1"/>
        <pt x="2537" y="2088" on="1"/>
      </contour>
    </TTGlyph>
    <TTGlyph name="uniAAA0" xMin="-23" yMin="-20" xMax="1625" yMax="2160">
      <contour>
        <pt x="1105" y="907" on="1"/>
        <pt x="1018" y="998" on="1"/>
        <pt x="976" y="782" on="0"/>
        <pt x="976" y="598" on="1"/>
        <pt x="976" y="372" on="0"/>
        <pt x="994" y="294" on="1"/>
        <pt x="1051" y="305" on="0"/>
        <pt x="1101" y="305" on="1"/>
        <pt x="1219" y="305" on="0"/>
        <pt x="1353" y="211" on="0"/>
        <pt x="1353" y="133" on="1"/>
        <pt x="1353" y="68" on="0"/>
        <pt x="1240" y="-20" on="0"/>
        <pt x="1155" y="-20" on="1"/>
        <pt x="1007" y="-20" on="0"/>
        <pt x="899" y="144" on="1"/>
        <pt x="846" y="120" on="0"/>
        <pt x="740" y="63" on="0"/>
        <pt x="632" y="14" on="0"/>
        <pt x="520" y="-20" on="0"/>
        <pt x="462" y="-20" on="1"/>
        <pt x="334" y="-20" on="0"/>
        <pt x="217" y="124" on="0"/>
        <pt x="217" y="280" on="1"/>
        <pt x="217" y="496" on="0"/>
        <pt x="176" y="893" on="0"/>
        <pt x="139" y="1007" on="1"/>
        <pt x="25" y="920" on="1"/>
        <pt x="-23" y="985" on="1"/>
        <pt x="501" y="1437" on="1"/>
        <pt x="604" y="1528" on="0"/>
        <pt x="650" y="1528" on="1"/>
        <pt x="672" y="1528" on="0"/>
        <pt x="720" y="1498" on="0"/>
        <pt x="768" y="1453" on="0"/>
        <pt x="913" y="1273" on="1"/>
        <pt x="1006" y="1540" on="0"/>
        <pt x="1345" y="1993" on="0"/>
        <pt x="1577" y="2160" on="1"/>
        <pt x="1625" y="2087" on="1"/>
        <pt x="1424" y="1938" on="0"/>
        <pt x="1126" y="1444" on="0"/>
        <pt x="1043" y="1112" on="1"/>
        <pt x="1167" y="960" on="1"/>
      </contour>
      <contour>
        <pt x="287" y="1116" on="1"/>
        <pt x="397" y="883" on="0"/>
        <pt x="397" y="301" on="1"/>
        <pt x="397" y="229" on="0"/>
        <pt x="414" y="153" on="0"/>
        <pt x="452" y="120" on="0"/>
        <pt x="495" y="120" on="1"/>
        <pt x="527" y="120" on="0"/>
        <pt x="625" y="154" on="0"/>
        <pt x="743" y="207" on="1"/>
        <pt x="846" y="250" on="1"/>
        <pt x="823" y="318" on="0"/>
        <pt x="796" y="505" on="0"/>
        <pt x="796" y="598" on="1"/>
        <pt x="796" y="883" on="0"/>
        <pt x="873" y="1151" on="1"/>
        <pt x="777" y="1253" on="1"/>
        <pt x="693" y="1343" on="0"/>
        <pt x="636" y="1343" on="1"/>
        <pt x="580" y="1343" on="0"/>
        <pt x="471" y="1260" on="1"/>
        <pt x="278" y="1113" on="1"/>
      </contour>
      <contour>
        <pt x="1108" y="195" on="1"/>
        <pt x="1075" y="195" on="0"/>
        <pt x="1035" y="188" on="1"/>
        <pt x="1054" y="138" on="0"/>
        <pt x="1106" y="90" on="0"/>
        <pt x="1143" y="90" on="1"/>
        <pt x="1165" y="90" on="0"/>
        <pt x="1203" y="112" on="0"/>
        <pt x="1203" y="137" on="1"/>
        <pt x="1203" y="195" on="0"/>
      </contour>
    </TTGlyph>
    <TTGlyph name="uniAAA1" xMin="100" yMin="-20" xMax="2375" yMax="2160">
      <contour>
        <pt x="1454" y="108" on="1"/>
        <pt x="1361" y="58" on="1"/>
        <pt x="1285" y="15" on="0"/>
        <pt x="1175" y="-20" on="0"/>
        <pt x="1112" y="-20" on="1"/>
        <pt x="1050" y="-20" on="0"/>
        <pt x="950" y="94" on="0"/>
        <pt x="876" y="329" on="0"/>
        <pt x="790" y="729" on="0"/>
        <pt x="778" y="839" on="1"/>
        <pt x="741" y="794" on="0"/>
        <pt x="619" y="385" on="0"/>
        <pt x="557" y="132" on="1"/>
        <pt x="539" y="58" on="0"/>
        <pt x="484" y="-20" on="0"/>
        <pt x="440" y="-20" on="1"/>
        <pt x="391" y="-20" on="0"/>
        <pt x="341" y="34" on="0"/>
        <pt x="280" y="185" on="0"/>
        <pt x="209" y="436" on="0"/>
        <pt x="144" y="740" on="0"/>
        <pt x="102" y="1013" on="0"/>
        <pt x="100" y="1081" on="1"/>
        <pt x="263" y="1118" on="1"/>
        <pt x="279" y="936" on="0"/>
        <pt x="416" y="270" on="0"/>
        <pt x="453" y="204" on="1"/>
        <pt x="505" y="430" on="0"/>
        <pt x="643" y="843" on="0"/>
        <pt x="785" y="1118" on="0"/>
        <pt x="824" y="1118" on="1"/>
        <pt x="895" y="1118" on="0"/>
        <pt x="913" y="1019" on="1"/>
        <pt x="923" y="959" on="0"/>
        <pt x="1009" y="550" on="0"/>
        <pt x="1047" y="383" on="1"/>
        <pt x="1104" y="122" on="0"/>
        <pt x="1193" y="122" on="1"/>
        <pt x="1244" y="122" on="0"/>
        <pt x="1344" y="172" on="0"/>
        <pt x="1398" y="210" on="1"/>
        <pt x="1350" y="331" on="0"/>
        <pt x="1350" y="506" on="1"/>
        <pt x="1350" y="816" on="0"/>
        <pt x="1583" y="1430" on="0"/>
        <pt x="2024" y="1961" on="0"/>
        <pt x="2327" y="2160" on="1"/>
        <pt x="2375" y="2087" on="1"/>
        <pt x="2126" y="1921" on="0"/>
        <pt x="1736" y="1419" on="0"/>
        <pt x="1530" y="837" on="0"/>
        <pt x="1530" y="543" on="1"/>
        <pt x="1530" y="384" on="0"/>
        <pt x="1550" y="289" on="1"/>
        <pt x="1632" y="317" on="0"/>
        <pt x="1712" y="317" on="1"/>
        <pt x="1816" y="317" on="0"/>
        <pt x="1940" y="227" on="0"/>
        <pt x="1940" y="152" on="1"/>
        <pt x="1940" y="78" on="0"/>
        <pt x="1804" y="-20" on="0"/>
        <pt x="1708" y="-20" on="1"/>
        <pt x="1550" y="-20" on="0"/>
      </contour>
      <contour>
        <pt x="1700" y="207" on="1"/>
        <pt x="1634" y="207" on="0"/>
        <pt x="1582" y="185" on="1"/>
        <pt x="1625" y="90" on="0"/>
        <pt x="1701" y="90" on="1"/>
        <pt x="1745" y="90" on="0"/>
        <pt x="1792" y="127" on="0"/>
        <pt x="1792" y="144" on="1"/>
        <pt x="1792" y="175" on="0"/>
        <pt x="1742" y="207" on="0"/>
      </contour>
    </TTGlyph>
    <TTGlyph name="uniAAA2" xMin="120" yMin="-40" xMax="2351" yMax="1385">
      <contour>
        <pt x="849" y="1098" on="1"/>
        <pt x="859" y="998" on="1"/>
        <pt x="927" y="1051" on="0"/>
        <pt x="1090" y="1118" on="0"/>
        <pt x="1152" y="1118" on="1"/>
        <pt x="1322" y="1118" on="0"/>
        <pt x="1513" y="810" on="0"/>
        <pt x="1513" y="536" on="1"/>
        <pt x="1513" y="474" on="0"/>
        <pt x="1495" y="288" on="0"/>
        <pt x="1478" y="203" on="1"/>
        <pt x="1537" y="172" on="1"/>
        <pt x="1632" y="120" on="0"/>
        <pt x="1692" y="120" on="1"/>
        <pt x="1749" y="120" on="0"/>
        <pt x="1823" y="233" on="0"/>
        <pt x="1834" y="343" on="1"/>
        <pt x="1860" y="611" on="0"/>
        <pt x="1975" y="970" on="0"/>
        <pt x="2166" y="1264" on="0"/>
        <pt x="2303" y="1385" on="1"/>
        <pt x="2351" y="1322" on="1"/>
        <pt x="2244" y="1224" on="0"/>
        <pt x="2105" y="965" on="0"/>
        <pt x="2025" y="643" on="0"/>
        <pt x="2004" y="362" on="1"/>
        <pt x="1990" y="166" on="0"/>
        <pt x="1840" y="-20" on="0"/>
        <pt x="1704" y="-20" on="1"/>
        <pt x="1655" y="-20" on="0"/>
        <pt x="1554" y="13" on="0"/>
        <pt x="1492" y="48" on="1"/>
        <pt x="1421" y="87" on="1"/>
        <pt x="1327" y="-40" on="0"/>
        <pt x="1151" y="-40" on="1"/>
        <pt x="1042" y="-40" on="0"/>
        <pt x="910" y="52" on="0"/>
        <pt x="910" y="118" on="1"/>
        <pt x="910" y="203" on="0"/>
        <pt x="1033" y="297" on="0"/>
        <pt x="1140" y="297" on="1"/>
        <pt x="1231" y="297" on="0"/>
        <pt x="1316" y="271" on="1"/>
        <pt x="1327" y="324" on="0"/>
        <pt x="1333" y="425" on="0"/>
        <pt x="1333" y="531" on="1"/>
        <pt x="1333" y="753" on="0"/>
        <pt x="1211" y="978" on="0"/>
        <pt x="1093" y="978" on="1"/>
        <pt x="1042" y="978" on="0"/>
        <pt x="911" y="937" on="0"/>
        <pt x="864" y="907" on="1"/>
        <pt x="867" y="799" on="1"/>
        <pt x="867" y="426" on="0"/>
        <pt x="625" y="-20" on="0"/>
        <pt x="421" y="-20" on="1"/>
        <pt x="290" y="-20" on="0"/>
        <pt x="149" y="202" on="0"/>
        <pt x="149" y="399" on="1"/>
        <pt x="149" y="469" on="0"/>
        <pt x="156" y="612" on="1"/>
        <pt x="162" y="755" on="0"/>
        <pt x="162" y="824" on="1"/>
        <pt x="162" y="969" on="0"/>
        <pt x="120" y="1058" on="1"/>
        <pt x="297" y="1116" on="1"/>
        <pt x="342" y="1019" on="0"/>
        <pt x="342" y="855" on="1"/>
        <pt x="342" y="766" on="0"/>
        <pt x="329" y="544" on="0"/>
        <pt x="329" y="411" on="1"/>
        <pt x="329" y="255" on="0"/>
        <pt x="394" y="120" on="0"/>
        <pt x="458" y="120" on="1"/>
        <pt x="574" y="120" on="0"/>
        <pt x="687" y="391" on="0"/>
        <pt x="687" y="734" on="1"/>
        <pt x="687" y="894" on="0"/>
        <pt x="666" y="1036" on="1"/>
      </contour>
      <contour>
        <pt x="1284" y="155" on="1"/>
        <pt x="1204" y="187" on="0"/>
        <pt x="1152" y="187" on="1"/>
        <pt x="1110" y="187" on="0"/>
        <pt x="1060" y="155" on="0"/>
        <pt x="1060" y="124" on="1"/>
        <pt x="1060" y="70" on="0"/>
        <pt x="1151" y="70" on="1"/>
        <pt x="1240" y="70" on="0"/>
      </contour>
    </TTGlyph>
    <TTGlyph name="uniAAA3" xMin="50" yMin="-40" xMax="1581" yMax="1385">
      <contour>
        <pt x="557" y="1116" on="1"/>
        <pt x="648" y="818" on="0"/>
        <pt x="648" y="509" on="1"/>
        <pt x="648" y="338" on="0"/>
        <pt x="618" y="203" on="1"/>
        <pt x="779" y="120" on="0"/>
        <pt x="871" y="120" on="1"/>
        <pt x="938" y="120" on="0"/>
        <pt x="1002" y="156" on="0"/>
        <pt x="1046" y="234" on="0"/>
        <pt x="1055" y="307" on="1"/>
        <pt x="1084" y="535" on="0"/>
        <pt x="1139" y="768" on="0"/>
        <pt x="1212" y="963" on="0"/>
        <pt x="1317" y="1146" on="0"/>
        <pt x="1448" y="1309" on="0"/>
        <pt x="1533" y="1385" on="1"/>
        <pt x="1581" y="1322" on="1"/>
        <pt x="1469" y="1220" on="0"/>
        <pt x="1327" y="954" on="0"/>
        <pt x="1249" y="612" on="0"/>
        <pt x="1231" y="317" on="1"/>
        <pt x="1210" y="-20" on="0"/>
        <pt x="883" y="-20" on="1"/>
        <pt x="759" y="-20" on="0"/>
        <pt x="561" y="87" on="1"/>
        <pt x="518" y="29" on="0"/>
        <pt x="381" y="-40" on="0"/>
        <pt x="290" y="-40" on="1"/>
        <pt x="180" y="-40" on="0"/>
        <pt x="50" y="50" on="0"/>
        <pt x="50" y="118" on="1"/>
        <pt x="50" y="203" on="0"/>
        <pt x="173" y="297" on="0"/>
        <pt x="280" y="297" on="1"/>
        <pt x="374" y="297" on="0"/>
        <pt x="459" y="271" on="1"/>
        <pt x="468" y="357" on="0"/>
        <pt x="468" y="461" on="1"/>
        <pt x="468" y="747" on="0"/>
        <pt x="384" y="1058" on="1"/>
      </contour>
      <contour>
        <pt x="291" y="70" on="1"/>
        <pt x="380" y="70" on="0"/>
        <pt x="424" y="155" on="1"/>
        <pt x="344" y="187" on="0"/>
        <pt x="292" y="187" on="1"/>
        <pt x="250" y="187" on="0"/>
        <pt x="200" y="155" on="0"/>
        <pt x="200" y="124" on="1"/>
        <pt x="200" y="70" on="0"/>
      </contour>
    </TTGlyph>
    <TTGlyph name="uniAAA4" xMin="-53" yMin="-20" xMax="1928" yMax="2160">
      <contour>
        <pt x="1928" y="2087" on="1"/>
        <pt x="1627" y="1859" on="0"/>
        <pt x="1174" y="1380" on="0"/>
        <pt x="1011" y="1114" on="1"/>
        <pt x="1137" y="960" on="1"/>
        <pt x="1075" y="907" on="1"/>
        <pt x="960" y="1028" on="1"/>
        <pt x="795" y="734" on="0"/>
        <pt x="666" y="315" on="1"/>
        <pt x="635" y="215" on="0"/>
        <pt x="574" y="41" on="0"/>
        <pt x="511" y="-20" on="0"/>
        <pt x="470" y="-20" on="1"/>
        <pt x="435" y="-20" on="0"/>
        <pt x="387" y="-1" on="0"/>
        <pt x="366" y="35" on="1"/>
        <pt x="301" y="145" on="0"/>
        <pt x="125" y="782" on="0"/>
        <pt x="91" y="993" on="1"/>
        <pt x="-5" y="920" on="1"/>
        <pt x="-53" y="985" on="1"/>
        <pt x="471" y="1437" on="1"/>
        <pt x="574" y="1528" on="0"/>
        <pt x="620" y="1528" on="1"/>
        <pt x="645" y="1528" on="0"/>
        <pt x="711" y="1482" on="0"/>
        <pt x="770" y="1414" on="0"/>
        <pt x="918" y="1229" on="1"/>
        <pt x="1091" y="1479" on="0"/>
        <pt x="1552" y="1926" on="0"/>
        <pt x="1880" y="2160" on="1"/>
      </contour>
      <contour>
        <pt x="244" y="1110" on="1"/>
        <pt x="266" y="926" on="0"/>
        <pt x="429" y="297" on="0"/>
        <pt x="470" y="225" on="1"/>
        <pt x="605" y="739" on="0"/>
        <pt x="857" y="1136" on="1"/>
        <pt x="747" y="1253" on="1"/>
        <pt x="663" y="1343" on="0"/>
        <pt x="606" y="1343" on="1"/>
        <pt x="550" y="1343" on="0"/>
        <pt x="441" y="1260" on="1"/>
      </contour>
    </TTGlyph>
    <TTGlyph name="uniAAA5" xMin="-53" yMin="-20" xMax="1138" yMax="1528">
      <contour>
        <pt x="1138" y="1322" on="1"/>
        <pt x="1063" y="1249" on="0"/>
        <pt x="989" y="1142" on="1"/>
        <pt x="1137" y="960" on="1"/>
        <pt x="1075" y="907" on="1"/>
        <pt x="934" y="1055" on="1"/>
        <pt x="738" y="727" on="0"/>
        <pt x="606" y="165" on="1"/>
        <pt x="579" y="51" on="0"/>
        <pt x="521" y="-20" on="0"/>
        <pt x="470" y="-20" on="1"/>
        <pt x="435" y="-20" on="0"/>
        <pt x="387" y="-1" on="0"/>
        <pt x="366" y="35" on="1"/>
        <pt x="301" y="145" on="0"/>
        <pt x="125" y="782" on="0"/>
        <pt x="91" y="993" on="1"/>
        <pt x="-5" y="920" on="1"/>
        <pt x="-53" y="985" on="1"/>
        <pt x="471" y="1437" on="1"/>
        <pt x="574" y="1528" on="0"/>
        <pt x="620" y="1528" on="1"/>
        <pt x="634" y="1528" on="0"/>
        <pt x="663" y="1516" on="0"/>
        <pt x="706" y="1484" on="0"/>
        <pt x="747" y="1442" on="0"/>
        <pt x="923" y="1223" on="1"/>
        <pt x="1008" y="1317" on="0"/>
        <pt x="1090" y="1385" on="1"/>
      </contour>
      <contour>
        <pt x="244" y="1110" on="1"/>
        <pt x="266" y="926" on="0"/>
        <pt x="429" y="297" on="0"/>
        <pt x="470" y="225" on="1"/>
        <pt x="539" y="500" on="0"/>
        <pt x="635" y="765" on="0"/>
        <pt x="763" y="1020" on="0"/>
        <pt x="854" y="1139" on="1"/>
        <pt x="747" y="1253" on="1"/>
        <pt x="663" y="1343" on="0"/>
        <pt x="606" y="1343" on="1"/>
        <pt x="550" y="1343" on="0"/>
        <pt x="441" y="1260" on="1"/>
      </contour>
    </TTGlyph>
    <TTGlyph name="uniAAA6" xMin="50" yMin="-18" xMax="1329" yMax="1138">
      <contour>
        <pt x="1152" y="-8" on="1"/>
        <pt x="1107" y="89" on="0"/>
        <pt x="1107" y="253" on="1"/>
        <pt x="1107" y="342" on="0"/>
        <pt x="1120" y="554" on="0"/>
        <pt x="1120" y="687" on="1"/>
        <pt x="1120" y="809" on="0"/>
        <pt x="1082" y="926" on="0"/>
        <pt x="995" y="978" on="0"/>
        <pt x="912" y="978" on="1"/>
        <pt x="853" y="978" on="0"/>
        <pt x="689" y="931" on="0"/>
        <pt x="618" y="895" on="1"/>
        <pt x="648" y="760" on="0"/>
        <pt x="648" y="589" on="1"/>
        <pt x="648" y="280" on="0"/>
        <pt x="557" y="-18" on="1"/>
        <pt x="384" y="40" on="1"/>
        <pt x="468" y="351" on="0"/>
        <pt x="468" y="637" on="1"/>
        <pt x="468" y="737" on="0"/>
        <pt x="459" y="827" on="1"/>
        <pt x="375" y="801" on="0"/>
        <pt x="280" y="801" on="1"/>
        <pt x="169" y="801" on="0"/>
        <pt x="50" y="897" on="0"/>
        <pt x="50" y="980" on="1"/>
        <pt x="50" y="1048" on="0"/>
        <pt x="180" y="1138" on="0"/>
        <pt x="290" y="1138" on="1"/>
        <pt x="381" y="1138" on="0"/>
        <pt x="518" y="1069" on="0"/>
        <pt x="561" y="1011" on="1"/>
        <pt x="645" y="1056" on="0"/>
        <pt x="849" y="1118" on="0"/>
        <pt x="921" y="1118" on="1"/>
        <pt x="1106" y="1118" on="0"/>
        <pt x="1300" y="906" on="0"/>
        <pt x="1300" y="699" on="1"/>
        <pt x="1300" y="598" on="0"/>
        <pt x="1287" y="384" on="0"/>
        <pt x="1287" y="284" on="1"/>
        <pt x="1287" y="138" on="0"/>
        <pt x="1329" y="49" on="1"/>
      </contour>
      <contour>
        <pt x="424" y="943" on="1"/>
        <pt x="380" y="1028" on="0"/>
        <pt x="291" y="1028" on="1"/>
        <pt x="200" y="1028" on="0"/>
        <pt x="200" y="974" on="1"/>
        <pt x="200" y="943" on="0"/>
        <pt x="250" y="911" on="0"/>
        <pt x="292" y="911" on="1"/>
        <pt x="344" y="911" on="0"/>
      </contour>
    </TTGlyph>
    <TTGlyph name="uniAAA7" xMin="50" yMin="-193" xMax="1681" yMax="1138">
      <contour>
        <pt x="876" y="-146" on="1"/>
        <pt x="983" y="39" on="0"/>
        <pt x="1140" y="166" on="1"/>
        <pt x="1108" y="253" on="0"/>
        <pt x="1108" y="371" on="1"/>
        <pt x="1110" y="444" on="1"/>
        <pt x="1120" y="624" on="0"/>
        <pt x="1120" y="687" on="1"/>
        <pt x="1120" y="809" on="0"/>
        <pt x="1082" y="926" on="0"/>
        <pt x="995" y="978" on="0"/>
        <pt x="912" y="978" on="1"/>
        <pt x="853" y="978" on="0"/>
        <pt x="689" y="931" on="0"/>
        <pt x="618" y="895" on="1"/>
        <pt x="648" y="760" on="0"/>
        <pt x="648" y="589" on="1"/>
        <pt x="648" y="280" on="0"/>
        <pt x="557" y="-18" on="1"/>
        <pt x="384" y="40" on="1"/>
        <pt x="468" y="351" on="0"/>
        <pt x="468" y="637" on="1"/>
        <pt x="468" y="737" on="0"/>
        <pt x="459" y="827" on="1"/>
        <pt x="375" y="801" on="0"/>
        <pt x="280" y="801" on="1"/>
        <pt x="169" y="801" on="0"/>
        <pt x="50" y="897" on="0"/>
        <pt x="50" y="980" on="1"/>
        <pt x="50" y="1048" on="0"/>
        <pt x="180" y="1138" on="0"/>
        <pt x="290" y="1138" on="1"/>
        <pt x="381" y="1138" on="0"/>
        <pt x="518" y="1069" on="0"/>
        <pt x="561" y="1011" on="1"/>
        <pt x="645" y="1056" on="0"/>
        <pt x="849" y="1118" on="0"/>
        <pt x="921" y="1118" on="1"/>
        <pt x="1106" y="1118" on="0"/>
        <pt x="1300" y="906" on="0"/>
        <pt x="1300" y="699" on="1"/>
        <pt x="1300" y="621" on="0"/>
        <pt x="1288" y="465" on="0"/>
        <pt x="1288" y="386" on="1"/>
        <pt x="1288" y="316" on="0"/>
        <pt x="1295" y="262" on="1"/>
        <pt x="1373" y="297" on="0"/>
        <pt x="1451" y="297" on="1"/>
        <pt x="1562" y="297" on="0"/>
        <pt x="1681" y="207" on="0"/>
        <pt x="1681" y="126" on="1"/>
        <pt x="1681" y="85" on="0"/>
        <pt x="1614" y="6" on="0"/>
        <pt x="1501" y="-40" on="0"/>
        <pt x="1434" y="-40" on="1"/>
        <pt x="1275" y="-40" on="0"/>
        <pt x="1191" y="72" on="1"/>
        <pt x="1078" y="-25" on="0"/>
        <pt x="966" y="-193" on="1"/>
      </contour>
      <contour>
        <pt x="424" y="943" on="1"/>
        <pt x="380" y="1028" on="0"/>
        <pt x="291" y="1028" on="1"/>
        <pt x="200" y="1028" on="0"/>
        <pt x="200" y="974" on="1"/>
        <pt x="200" y="943" on="0"/>
        <pt x="250" y="911" on="0"/>
        <pt x="292" y="911" on="1"/>
        <pt x="344" y="911" on="0"/>
      </contour>
      <contour>
        <pt x="1439" y="187" on="1"/>
        <pt x="1383" y="187" on="0"/>
        <pt x="1323" y="160" on="1"/>
        <pt x="1362" y="70" on="0"/>
        <pt x="1440" y="70" on="1"/>
        <pt x="1531" y="70" on="0"/>
        <pt x="1531" y="124" on="1"/>
        <pt x="1531" y="155" on="0"/>
        <pt x="1481" y="187" on="0"/>
      </contour>
    </TTGlyph>
    <TTGlyph name="uniAAA8" xMin="120" yMin="-600" xMax="1800" yMax="1118">
      <contour>
        <pt x="849" y="1098" on="1"/>
        <pt x="858" y="1006" on="1"/>
        <pt x="927" y="1057" on="0"/>
        <pt x="1082" y="1118" on="0"/>
        <pt x="1152" y="1118" on="1"/>
        <pt x="1292" y="1118" on="0"/>
        <pt x="1439" y="939" on="0"/>
        <pt x="1439" y="768" on="1"/>
        <pt x="1439" y="712" on="0"/>
        <pt x="1424" y="566" on="0"/>
        <pt x="1382" y="280" on="1"/>
        <pt x="1362" y="143" on="0"/>
        <pt x="1362" y="63" on="1"/>
        <pt x="1362" y="-79" on="0"/>
        <pt x="1441" y="-272" on="0"/>
        <pt x="1618" y="-429" on="0"/>
        <pt x="1800" y="-523" on="1"/>
        <pt x="1753" y="-600" on="1"/>
        <pt x="1573" y="-511" on="0"/>
        <pt x="1418" y="-410" on="0"/>
        <pt x="1302" y="-299" on="0"/>
        <pt x="1224" y="-165" on="0"/>
        <pt x="1182" y="3" on="0"/>
        <pt x="1182" y="109" on="1"/>
        <pt x="1182" y="188" on="0"/>
        <pt x="1206" y="346" on="0"/>
        <pt x="1235" y="507" on="0"/>
        <pt x="1259" y="670" on="0"/>
        <pt x="1259" y="756" on="1"/>
        <pt x="1259" y="883" on="0"/>
        <pt x="1187" y="978" on="0"/>
        <pt x="1098" y="978" on="1"/>
        <pt x="970" y="978" on="0"/>
        <pt x="865" y="888" on="1"/>
        <pt x="867" y="799" on="1"/>
        <pt x="867" y="426" on="0"/>
        <pt x="625" y="-20" on="0"/>
        <pt x="421" y="-20" on="1"/>
        <pt x="290" y="-20" on="0"/>
        <pt x="149" y="202" on="0"/>
        <pt x="149" y="399" on="1"/>
        <pt x="149" y="469" on="0"/>
        <pt x="156" y="612" on="1"/>
        <pt x="162" y="755" on="0"/>
        <pt x="162" y="824" on="1"/>
        <pt x="162" y="969" on="0"/>
        <pt x="120" y="1058" on="1"/>
        <pt x="297" y="1116" on="1"/>
        <pt x="342" y="1019" on="0"/>
        <pt x="342" y="855" on="1"/>
        <pt x="342" y="766" on="0"/>
        <pt x="329" y="544" on="0"/>
        <pt x="329" y="411" on="1"/>
        <pt x="329" y="255" on="0"/>
        <pt x="394" y="120" on="0"/>
        <pt x="458" y="120" on="1"/>
        <pt x="574" y="120" on="0"/>
        <pt x="687" y="391" on="0"/>
        <pt x="687" y="734" on="1"/>
        <pt x="687" y="894" on="0"/>
        <pt x="666" y="1036" on="1"/>
      </contour>
    </TTGlyph>
    <TTGlyph name="uniAAA9" xMin="50" yMin="-20" xMax="1259" yMax="1118">
      <contour>
        <pt x="563" y="-20" on="1"/>
        <pt x="608" y="205" on="0"/>
        <pt x="686" y="399" on="1"/>
        <pt x="680" y="399" on="1"/>
        <pt x="627" y="399" on="0"/>
        <pt x="553" y="441" on="0"/>
        <pt x="501" y="517" on="0"/>
        <pt x="469" y="626" on="0"/>
        <pt x="438" y="795" on="1"/>
        <pt x="421" y="886" on="0"/>
        <pt x="356" y="978" on="0"/>
        <pt x="305" y="978" on="1"/>
        <pt x="266" y="978" on="0"/>
        <pt x="148" y="947" on="0"/>
        <pt x="95" y="918" on="1"/>
        <pt x="50" y="980" on="1"/>
        <pt x="120" y="1039" on="0"/>
        <pt x="298" y="1118" on="0"/>
        <pt x="364" y="1118" on="1"/>
        <pt x="439" y="1118" on="0"/>
        <pt x="542" y="1041" on="0"/>
        <pt x="598" y="897" on="0"/>
        <pt x="619" y="722" on="1"/>
        <pt x="631" y="622" on="0"/>
        <pt x="670" y="539" on="0"/>
        <pt x="704" y="539" on="1"/>
        <pt x="725" y="539" on="0"/>
        <pt x="753" y="544" on="1"/>
        <pt x="918" y="871" on="0"/>
        <pt x="1221" y="1118" on="1"/>
        <pt x="1259" y="1049" on="1"/>
        <pt x="1126" y="910" on="0"/>
        <pt x="938" y="608" on="0"/>
        <pt x="816" y="273" on="0"/>
        <pt x="772" y="35" on="1"/>
      </contour>
    </TTGlyph>
    <TTGlyph name="uniAAAA" xMin="120" yMin="-20" xMax="2408" yMax="1118">
      <contour>
        <pt x="2043" y="90" on="1"/>
        <pt x="2124" y="90" on="0"/>
        <pt x="2228" y="337" on="0"/>
        <pt x="2228" y="532" on="1"/>
        <pt x="2228" y="770" on="0"/>
        <pt x="2144" y="976" on="0"/>
        <pt x="2060" y="976" on="1"/>
        <pt x="2006" y="976" on="0"/>
        <pt x="1908" y="801" on="0"/>
        <pt x="1828" y="520" on="1"/>
        <pt x="1791" y="392" on="1"/>
        <pt x="1733" y="201" on="0"/>
        <pt x="1519" y="-20" on="0"/>
        <pt x="1380" y="-20" on="1"/>
        <pt x="1260" y="-20" on="0"/>
        <pt x="1136" y="122" on="0"/>
        <pt x="1136" y="255" on="1"/>
        <pt x="1136" y="313" on="0"/>
        <pt x="1159" y="448" on="0"/>
        <pt x="1188" y="598" on="0"/>
        <pt x="1211" y="764" on="0"/>
        <pt x="1211" y="854" on="1"/>
        <pt x="1211" y="908" on="0"/>
        <pt x="1142" y="978" on="0"/>
        <pt x="1093" y="978" on="1"/>
        <pt x="1042" y="978" on="0"/>
        <pt x="911" y="937" on="0"/>
        <pt x="864" y="907" on="1"/>
        <pt x="867" y="799" on="1"/>
        <pt x="867" y="426" on="0"/>
        <pt x="625" y="-20" on="0"/>
        <pt x="421" y="-20" on="1"/>
        <pt x="290" y="-20" on="0"/>
        <pt x="149" y="202" on="0"/>
        <pt x="149" y="399" on="1"/>
        <pt x="149" y="469" on="0"/>
        <pt x="156" y="612" on="1"/>
        <pt x="162" y="755" on="0"/>
        <pt x="162" y="824" on="1"/>
        <pt x="162" y="969" on="0"/>
        <pt x="120" y="1058" on="1"/>
        <pt x="297" y="1116" on="1"/>
        <pt x="342" y="1019" on="0"/>
        <pt x="342" y="855" on="1"/>
        <pt x="342" y="766" on="0"/>
        <pt x="329" y="544" on="0"/>
        <pt x="329" y="411" on="1"/>
        <pt x="329" y="255" on="0"/>
        <pt x="394" y="120" on="0"/>
        <pt x="458" y="120" on="1"/>
        <pt x="574" y="120" on="0"/>
        <pt x="687" y="391" on="0"/>
        <pt x="687" y="734" on="1"/>
        <pt x="687" y="894" on="0"/>
        <pt x="666" y="1036" on="1"/>
        <pt x="849" y="1098" on="1"/>
        <pt x="859" y="998" on="1"/>
        <pt x="927" y="1051" on="0"/>
        <pt x="1090" y="1118" on="0"/>
        <pt x="1152" y="1118" on="1"/>
        <pt x="1223" y="1118" on="0"/>
        <pt x="1330" y="1049" on="0"/>
        <pt x="1391" y="935" on="0"/>
        <pt x="1391" y="870" on="1"/>
        <pt x="1391" y="757" on="0"/>
        <pt x="1354" y="544" on="1"/>
        <pt x="1316" y="330" on="0"/>
        <pt x="1316" y="251" on="1"/>
        <pt x="1316" y="185" on="0"/>
        <pt x="1361" y="120" on="0"/>
        <pt x="1413" y="120" on="1"/>
        <pt x="1447" y="120" on="0"/>
        <pt x="1507" y="164" on="0"/>
        <pt x="1557" y="238" on="0"/>
        <pt x="1600" y="334" on="0"/>
        <pt x="1635" y="437" on="0"/>
        <pt x="1663" y="539" on="0"/>
        <pt x="1675" y="582" on="1"/>
        <pt x="1749" y="870" on="0"/>
        <pt x="1949" y="1116" on="0"/>
        <pt x="2097" y="1116" on="1"/>
        <pt x="2191" y="1116" on="0"/>
        <pt x="2329" y="986" on="0"/>
        <pt x="2408" y="723" on="0"/>
        <pt x="2408" y="544" on="1"/>
        <pt x="2408" y="392" on="0"/>
        <pt x="2324" y="131" on="0"/>
        <pt x="2172" y="-20" on="0"/>
        <pt x="2077" y="-20" on="1"/>
        <pt x="1995" y="-20" on="0"/>
        <pt x="1848" y="78" on="0"/>
        <pt x="1809" y="156" on="1"/>
        <pt x="1875" y="196" on="1"/>
        <pt x="1957" y="90" on="0"/>
      </contour>
    </TTGlyph>
    <TTGlyph name="uniAAAB" xMin="80" yMin="-20" xMax="1132" yMax="1118">
      <contour>
        <pt x="382" y="319" on="1"/>
        <pt x="387" y="220" on="0"/>
        <pt x="491" y="120" on="0"/>
        <pt x="597" y="120" on="1"/>
        <pt x="699" y="120" on="0"/>
        <pt x="862" y="267" on="0"/>
        <pt x="952" y="519" on="0"/>
        <pt x="952" y="668" on="1"/>
        <pt x="952" y="815" on="0"/>
        <pt x="819" y="978" on="0"/>
        <pt x="691" y="978" on="1"/>
        <pt x="591" y="978" on="0"/>
        <pt x="398" y="902" on="0"/>
        <pt x="221" y="747" on="0"/>
        <pt x="156" y="646" on="1"/>
        <pt x="80" y="686" on="1"/>
        <pt x="137" y="799" on="0"/>
        <pt x="341" y="1011" on="0"/>
        <pt x="579" y="1118" on="0"/>
        <pt x="706" y="1118" on="1"/>
        <pt x="912" y="1118" on="0"/>
        <pt x="1132" y="883" on="0"/>
        <pt x="1132" y="672" on="1"/>
        <pt x="1132" y="498" on="0"/>
        <pt x="972" y="166" on="0"/>
        <pt x="714" y="-20" on="0"/>
        <pt x="562" y="-20" on="1"/>
        <pt x="400" y="-20" on="0"/>
        <pt x="219" y="136" on="0"/>
        <pt x="208" y="287" on="1"/>
      </contour>
    </TTGlyph>
    <TTGlyph name="uniAAAC" xMin="120" yMin="-20" xMax="1523" yMax="1118">
      <contour>
        <pt x="869" y="1098" on="1"/>
        <pt x="879" y="989" on="1"/>
        <pt x="960" y="1049" on="0"/>
        <pt x="1139" y="1118" on="0"/>
        <pt x="1214" y="1118" on="1"/>
        <pt x="1346" y="1118" on="0"/>
        <pt x="1494" y="894" on="0"/>
        <pt x="1494" y="699" on="1"/>
        <pt x="1494" y="598" on="0"/>
        <pt x="1481" y="384" on="0"/>
        <pt x="1481" y="284" on="1"/>
        <pt x="1481" y="139" on="0"/>
        <pt x="1523" y="50" on="1"/>
        <pt x="1346" y="-8" on="1"/>
        <pt x="1301" y="89" on="0"/>
        <pt x="1301" y="253" on="1"/>
        <pt x="1301" y="342" on="0"/>
        <pt x="1314" y="554" on="0"/>
        <pt x="1314" y="687" on="1"/>
        <pt x="1314" y="854" on="0"/>
        <pt x="1241" y="978" on="0"/>
        <pt x="1159" y="978" on="1"/>
        <pt x="1010" y="978" on="0"/>
        <pt x="886" y="874" on="1"/>
        <pt x="887" y="836" on="1"/>
        <pt x="887" y="799" on="1"/>
        <pt x="887" y="426" on="0"/>
        <pt x="645" y="-20" on="0"/>
        <pt x="441" y="-20" on="1"/>
        <pt x="305" y="-20" on="0"/>
        <pt x="149" y="210" on="0"/>
        <pt x="149" y="399" on="1"/>
        <pt x="149" y="469" on="0"/>
        <pt x="156" y="612" on="1"/>
        <pt x="162" y="755" on="0"/>
        <pt x="162" y="824" on="1"/>
        <pt x="162" y="969" on="0"/>
        <pt x="120" y="1058" on="1"/>
        <pt x="297" y="1116" on="1"/>
        <pt x="342" y="1019" on="0"/>
        <pt x="342" y="855" on="1"/>
        <pt x="342" y="766" on="0"/>
        <pt x="329" y="544" on="0"/>
        <pt x="329" y="411" on="1"/>
        <pt x="329" y="276" on="0"/>
        <pt x="407" y="120" on="0"/>
        <pt x="478" y="120" on="1"/>
        <pt x="594" y="120" on="0"/>
        <pt x="707" y="391" on="0"/>
        <pt x="707" y="734" on="1"/>
        <pt x="707" y="894" on="0"/>
        <pt x="686" y="1036" on="1"/>
      </contour>
    </TTGlyph>
    <TTGlyph name="uniAAAD" xMin="100" yMin="-20" xMax="1486" yMax="1116">
      <contour>
        <pt x="322" y="855" on="1"/>
        <pt x="322" y="766" on="0"/>
        <pt x="309" y="544" on="0"/>
        <pt x="309" y="411" on="1"/>
        <pt x="309" y="255" on="0"/>
        <pt x="374" y="120" on="0"/>
        <pt x="438" y="120" on="1"/>
        <pt x="507" y="120" on="0"/>
        <pt x="628" y="327" on="0"/>
        <pt x="693" y="582" on="1"/>
        <pt x="767" y="870" on="0"/>
        <pt x="967" y="1116" on="0"/>
        <pt x="1115" y="1116" on="1"/>
        <pt x="1225" y="1116" on="0"/>
        <pt x="1391" y="973" on="0"/>
        <pt x="1486" y="705" on="0"/>
        <pt x="1486" y="544" on="1"/>
        <pt x="1486" y="389" on="0"/>
        <pt x="1400" y="128" on="0"/>
        <pt x="1241" y="-20" on="0"/>
        <pt x="1140" y="-20" on="1"/>
        <pt x="1058" y="-20" on="0"/>
        <pt x="911" y="78" on="0"/>
        <pt x="872" y="156" on="1"/>
        <pt x="938" y="196" on="1"/>
        <pt x="1020" y="90" on="0"/>
        <pt x="1106" y="90" on="1"/>
        <pt x="1191" y="90" on="0"/>
        <pt x="1306" y="350" on="0"/>
        <pt x="1306" y="532" on="1"/>
        <pt x="1306" y="732" on="0"/>
        <pt x="1182" y="976" on="0"/>
        <pt x="1078" y="976" on="1"/>
        <pt x="1008" y="976" on="0"/>
        <pt x="891" y="777" on="0"/>
        <pt x="814" y="511" on="1"/>
        <pt x="776" y="382" on="1"/>
        <pt x="654" y="-20" on="0"/>
        <pt x="401" y="-20" on="1"/>
        <pt x="270" y="-20" on="0"/>
        <pt x="129" y="202" on="0"/>
        <pt x="129" y="399" on="1"/>
        <pt x="129" y="469" on="0"/>
        <pt x="136" y="612" on="1"/>
        <pt x="142" y="755" on="0"/>
        <pt x="142" y="824" on="1"/>
        <pt x="142" y="969" on="0"/>
        <pt x="100" y="1058" on="1"/>
        <pt x="277" y="1116" on="1"/>
        <pt x="322" y="1019" on="0"/>
      </contour>
    </TTGlyph>
    <TTGlyph name="uniAAAE" xMin="100" yMin="-20" xMax="1245" yMax="1118">
      <contour>
        <pt x="241" y="497" on="1"/>
        <pt x="220" y="444" on="0"/>
        <pt x="220" y="388" on="1"/>
        <pt x="220" y="266" on="0"/>
        <pt x="390" y="120" on="0"/>
        <pt x="531" y="120" on="1"/>
        <pt x="665" y="120" on="0"/>
        <pt x="861" y="261" on="0"/>
        <pt x="965" y="513" on="0"/>
        <pt x="965" y="668" on="1"/>
        <pt x="965" y="683" on="1"/>
        <pt x="964" y="696" on="1"/>
        <pt x="719" y="604" on="0"/>
        <pt x="577" y="604" on="1"/>
        <pt x="449" y="604" on="0"/>
        <pt x="296" y="719" on="0"/>
        <pt x="296" y="811" on="1"/>
        <pt x="296" y="888" on="0"/>
        <pt x="409" y="1033" on="0"/>
        <pt x="604" y="1118" on="0"/>
        <pt x="719" y="1118" on="1"/>
        <pt x="867" y="1118" on="0"/>
        <pt x="1068" y="993" on="0"/>
        <pt x="1114" y="867" on="1"/>
        <pt x="1163" y="889" on="0"/>
        <pt x="1216" y="918" on="1"/>
        <pt x="1245" y="832" on="1"/>
        <pt x="1202" y="805" on="0"/>
        <pt x="1137" y="773" on="1"/>
        <pt x="1145" y="721" on="0"/>
        <pt x="1145" y="672" on="1"/>
        <pt x="1145" y="484" on="0"/>
        <pt x="983" y="163" on="0"/>
        <pt x="693" y="-20" on="0"/>
        <pt x="516" y="-20" on="1"/>
        <pt x="394" y="-20" on="0"/>
        <pt x="203" y="84" on="0"/>
        <pt x="100" y="268" on="0"/>
        <pt x="100" y="382" on="1"/>
        <pt x="100" y="473" on="0"/>
        <pt x="136" y="554" on="1"/>
      </contour>
      <contour>
        <pt x="612" y="714" on="1"/>
        <pt x="739" y="714" on="0"/>
        <pt x="949" y="795" on="1"/>
        <pt x="897" y="978" on="0"/>
        <pt x="704" y="978" on="1"/>
        <pt x="633" y="978" on="0"/>
        <pt x="517" y="934" on="0"/>
        <pt x="446" y="855" on="0"/>
        <pt x="446" y="814" on="1"/>
        <pt x="446" y="773" on="0"/>
        <pt x="526" y="714" on="0"/>
      </contour>
    </TTGlyph>
    <TTGlyph name="uniAAAF" xMin="100" yMin="-600" xMax="1619" yMax="1118">
      <contour>
        <pt x="241" y="497" on="1"/>
        <pt x="220" y="444" on="0"/>
        <pt x="220" y="388" on="1"/>
        <pt x="220" y="266" on="0"/>
        <pt x="390" y="120" on="0"/>
        <pt x="531" y="120" on="1"/>
        <pt x="665" y="120" on="0"/>
        <pt x="861" y="261" on="0"/>
        <pt x="965" y="513" on="0"/>
        <pt x="965" y="668" on="1"/>
        <pt x="965" y="682" on="1"/>
        <pt x="964" y="696" on="1"/>
        <pt x="719" y="604" on="0"/>
        <pt x="577" y="604" on="1"/>
        <pt x="449" y="604" on="0"/>
        <pt x="296" y="719" on="0"/>
        <pt x="296" y="811" on="1"/>
        <pt x="296" y="888" on="0"/>
        <pt x="409" y="1033" on="0"/>
        <pt x="604" y="1118" on="0"/>
        <pt x="719" y="1118" on="1"/>
        <pt x="867" y="1118" on="0"/>
        <pt x="1068" y="993" on="0"/>
        <pt x="1114" y="867" on="1"/>
        <pt x="1238" y="925" on="0"/>
        <pt x="1337" y="953" on="0"/>
        <pt x="1378" y="953" on="1"/>
        <pt x="1499" y="953" on="0"/>
        <pt x="1619" y="790" on="0"/>
        <pt x="1619" y="635" on="1"/>
        <pt x="1619" y="395" on="0"/>
        <pt x="1364" y="-94" on="0"/>
        <pt x="913" y="-492" on="0"/>
        <pt x="636" y="-600" on="1"/>
        <pt x="589" y="-523" on="1"/>
        <pt x="852" y="-412" on="0"/>
        <pt x="1233" y="-63" on="0"/>
        <pt x="1439" y="392" on="0"/>
        <pt x="1439" y="631" on="1"/>
        <pt x="1439" y="843" on="0"/>
        <pt x="1322" y="843" on="1"/>
        <pt x="1271" y="843" on="0"/>
        <pt x="1182" y="796" on="1"/>
        <pt x="1137" y="773" on="1"/>
        <pt x="1145" y="721" on="0"/>
        <pt x="1145" y="672" on="1"/>
        <pt x="1145" y="484" on="0"/>
        <pt x="983" y="163" on="0"/>
        <pt x="693" y="-20" on="0"/>
        <pt x="516" y="-20" on="1"/>
        <pt x="394" y="-20" on="0"/>
        <pt x="203" y="84" on="0"/>
        <pt x="100" y="268" on="0"/>
        <pt x="100" y="382" on="1"/>
        <pt x="100" y="473" on="0"/>
        <pt x="136" y="554" on="1"/>
      </contour>
      <contour>
        <pt x="612" y="714" on="1"/>
        <pt x="739" y="714" on="0"/>
        <pt x="949" y="795" on="1"/>
        <pt x="897" y="978" on="0"/>
        <pt x="704" y="978" on="1"/>
        <pt x="633" y="978" on="0"/>
        <pt x="517" y="934" on="0"/>
        <pt x="446" y="855" on="0"/>
        <pt x="446" y="814" on="1"/>
        <pt x="446" y="773" on="0"/>
        <pt x="526" y="714" on="0"/>
      </contour>
    </TTGlyph>
    <TTGlyph name="uniAAB0" xMin="-1184" yMin="1300" xMax="-296" yMax="1813">
      <contour>
        <pt x="-296" y="1729" on="1"/>
        <pt x="-370" y="1675" on="0"/>
        <pt x="-553" y="1522" on="1"/>
        <pt x="-670" y="1424" on="0"/>
        <pt x="-799" y="1342" on="0"/>
        <pt x="-924" y="1300" on="0"/>
        <pt x="-992" y="1300" on="1"/>
        <pt x="-1079" y="1300" on="0"/>
        <pt x="-1184" y="1389" on="0"/>
        <pt x="-1184" y="1465" on="1"/>
        <pt x="-1184" y="1534" on="0"/>
        <pt x="-1060" y="1664" on="0"/>
        <pt x="-977" y="1690" on="1"/>
        <pt x="-948" y="1645" on="1"/>
        <pt x="-1010" y="1604" on="0"/>
        <pt x="-1054" y="1533" on="0"/>
        <pt x="-1054" y="1486" on="1"/>
        <pt x="-1054" y="1452" on="0"/>
        <pt x="-1005" y="1410" on="0"/>
        <pt x="-974" y="1410" on="1"/>
        <pt x="-908" y="1410" on="0"/>
        <pt x="-777" y="1477" on="0"/>
        <pt x="-627" y="1589" on="0"/>
        <pt x="-446" y="1734" on="0"/>
        <pt x="-329" y="1813" on="1"/>
      </contour>
    </TTGlyph>
    <TTGlyph name="uniAAB1" xMin="200" yMin="-10" xMax="445" yMax="1116">
      <contour>
        <pt x="275" y="-10" on="1"/>
        <pt x="229" y="102" on="0"/>
        <pt x="229" y="399" on="1"/>
        <pt x="229" y="469" on="0"/>
        <pt x="236" y="612" on="1"/>
        <pt x="242" y="755" on="0"/>
        <pt x="242" y="824" on="1"/>
        <pt x="242" y="969" on="0"/>
        <pt x="200" y="1058" on="1"/>
        <pt x="377" y="1116" on="1"/>
        <pt x="422" y="1019" on="0"/>
        <pt x="422" y="855" on="1"/>
        <pt x="422" y="766" on="0"/>
        <pt x="409" y="544" on="0"/>
        <pt x="409" y="411" on="1"/>
        <pt x="409" y="162" on="0"/>
        <pt x="445" y="30" on="1"/>
      </contour>
    </TTGlyph>
    <TTGlyph name="uniAAB2" xMin="-1093" yMin="1300" xMax="-240" yMax="1787">
      <contour>
        <pt x="-1093" y="1371" on="1"/>
        <pt x="-1004" y="1419" on="0"/>
        <pt x="-869" y="1539" on="0"/>
        <pt x="-766" y="1673" on="0"/>
        <pt x="-706" y="1787" on="1"/>
        <pt x="-551" y="1763" on="1"/>
        <pt x="-532" y="1656" on="0"/>
        <pt x="-462" y="1538" on="0"/>
        <pt x="-337" y="1450" on="0"/>
        <pt x="-240" y="1421" on="1"/>
        <pt x="-252" y="1356" on="1"/>
        <pt x="-399" y="1375" on="0"/>
        <pt x="-625" y="1502" on="0"/>
        <pt x="-673" y="1597" on="1"/>
        <pt x="-770" y="1486" on="0"/>
        <pt x="-981" y="1328" on="0"/>
        <pt x="-1071" y="1300" on="1"/>
      </contour>
    </TTGlyph>
    <TTGlyph name="uniAAB3" xMin="-1186" yMin="1300" xMax="-324" yMax="1951">
      <contour>
        <pt x="-324" y="1836" on="1"/>
        <pt x="-431" y="1777" on="0"/>
        <pt x="-633" y="1675" on="0"/>
        <pt x="-742" y="1645" on="1"/>
        <pt x="-768" y="1544" on="0"/>
        <pt x="-928" y="1354" on="0"/>
        <pt x="-1030" y="1300" on="1"/>
        <pt x="-1079" y="1350" on="1"/>
        <pt x="-998" y="1409" on="0"/>
        <pt x="-897" y="1551" on="0"/>
        <pt x="-876" y="1619" on="1"/>
        <pt x="-931" y="1614" on="0"/>
        <pt x="-966" y="1614" on="1"/>
        <pt x="-1068" y="1614" on="0"/>
        <pt x="-1186" y="1706" on="0"/>
        <pt x="-1186" y="1785" on="1"/>
        <pt x="-1186" y="1856" on="0"/>
        <pt x="-1059" y="1951" on="0"/>
        <pt x="-963" y="1951" on="1"/>
        <pt x="-870" y="1951" on="0"/>
        <pt x="-747" y="1845" on="0"/>
        <pt x="-734" y="1760" on="1"/>
        <pt x="-643" y="1787" on="0"/>
        <pt x="-459" y="1872" on="0"/>
        <pt x="-363" y="1920" on="1"/>
      </contour>
      <contour>
        <pt x="-954" y="1724" on="1"/>
        <pt x="-901" y="1724" on="0"/>
        <pt x="-861" y="1731" on="1"/>
        <pt x="-866" y="1780" on="0"/>
        <pt x="-919" y="1841" on="0"/>
        <pt x="-967" y="1841" on="1"/>
        <pt x="-1056" y="1841" on="0"/>
        <pt x="-1056" y="1787" on="1"/>
        <pt x="-1056" y="1759" on="0"/>
        <pt x="-1000" y="1724" on="0"/>
      </contour>
    </TTGlyph>
    <TTGlyph name="uniAAB4" xMin="-725" yMin="-600" xMax="-150" yMax="-80">
      <contour>
        <pt x="-725" y="-532" on="1"/>
        <pt x="-609" y="-517" on="0"/>
        <pt x="-410" y="-420" on="0"/>
        <pt x="-290" y="-289" on="0"/>
        <pt x="-290" y="-237" on="1"/>
        <pt x="-290" y="-180" on="0"/>
        <pt x="-363" y="-180" on="1"/>
        <pt x="-393" y="-180" on="0"/>
        <pt x="-482" y="-215" on="0"/>
        <pt x="-508" y="-238" on="1"/>
        <pt x="-540" y="-195" on="1"/>
        <pt x="-413" y="-80" on="0"/>
        <pt x="-311" y="-80" on="1"/>
        <pt x="-230" y="-80" on="0"/>
        <pt x="-150" y="-152" on="0"/>
        <pt x="-150" y="-208" on="1"/>
        <pt x="-150" y="-288" on="0"/>
        <pt x="-295" y="-455" on="0"/>
        <pt x="-548" y="-577" on="0"/>
        <pt x="-712" y="-600" on="1"/>
      </contour>
    </TTGlyph>
    <TTGlyph name="uniAAB5" xMin="160" yMin="-10" xMax="1543" yMax="1264">
      <contour>
        <pt x="943" y="1203" on="1"/>
        <pt x="765" y="1006" on="0"/>
        <pt x="579" y="546" on="0"/>
        <pt x="579" y="308" on="1"/>
        <pt x="579" y="181" on="0"/>
        <pt x="609" y="57" on="1"/>
        <pt x="447" y="-10" on="1"/>
        <pt x="396" y="93" on="0"/>
        <pt x="244" y="226" on="0"/>
        <pt x="160" y="236" on="1"/>
        <pt x="184" y="340" on="1"/>
        <pt x="299" y="328" on="0"/>
        <pt x="399" y="269" on="1"/>
        <pt x="399" y="274" on="1"/>
        <pt x="399" y="509" on="0"/>
        <pt x="664" y="1037" on="0"/>
        <pt x="888" y="1264" on="1"/>
      </contour>
      <contour>
        <pt x="1543" y="1203" on="1"/>
        <pt x="1365" y="1006" on="0"/>
        <pt x="1179" y="546" on="0"/>
        <pt x="1179" y="308" on="1"/>
        <pt x="1179" y="181" on="0"/>
        <pt x="1209" y="57" on="1"/>
        <pt x="1047" y="-10" on="1"/>
        <pt x="996" y="93" on="0"/>
        <pt x="844" y="226" on="0"/>
        <pt x="760" y="236" on="1"/>
        <pt x="784" y="340" on="1"/>
        <pt x="899" y="328" on="0"/>
        <pt x="999" y="269" on="1"/>
        <pt x="999" y="274" on="1"/>
        <pt x="999" y="509" on="0"/>
        <pt x="1264" y="1037" on="0"/>
        <pt x="1488" y="1264" on="1"/>
      </contour>
    </TTGlyph>
    <TTGlyph name="uniAAB6" xMin="100" yMin="-40" xMax="1377" yMax="2160">
      <contour>
        <pt x="117" y="495" on="1"/>
        <pt x="239" y="487" on="0"/>
        <pt x="352" y="469" on="1"/>
        <pt x="352" y="486" on="1"/>
        <pt x="352" y="799" on="0"/>
        <pt x="587" y="1425" on="0"/>
        <pt x="1028" y="1963" on="0"/>
        <pt x="1329" y="2160" on="1"/>
        <pt x="1377" y="2087" on="1"/>
        <pt x="1129" y="1922" on="0"/>
        <pt x="739" y="1408" on="0"/>
        <pt x="532" y="814" on="0"/>
        <pt x="532" y="523" on="1"/>
        <pt x="532" y="476" on="1"/>
        <pt x="534" y="431" on="1"/>
        <pt x="731" y="378" on="0"/>
        <pt x="934" y="225" on="0"/>
        <pt x="934" y="132" on="1"/>
        <pt x="934" y="57" on="0"/>
        <pt x="805" y="-40" on="0"/>
        <pt x="710" y="-40" on="1"/>
        <pt x="568" y="-40" on="0"/>
        <pt x="382" y="169" on="0"/>
        <pt x="359" y="361" on="1"/>
        <pt x="243" y="384" on="0"/>
        <pt x="100" y="399" on="1"/>
      </contour>
      <contour>
        <pt x="794" y="124" on="1"/>
        <pt x="794" y="237" on="0"/>
        <pt x="544" y="316" on="1"/>
        <pt x="579" y="70" on="0"/>
        <pt x="703" y="70" on="1"/>
        <pt x="747" y="70" on="0"/>
        <pt x="794" y="107" on="0"/>
      </contour>
    </TTGlyph>
    <TTGlyph name="uniAAB7" xMin="-1218" yMin="1300" xMax="-304" yMax="1847">
      <contour>
        <pt x="-304" y="1767" on="1"/>
        <pt x="-507" y="1677" on="0"/>
        <pt x="-1053" y="1374" on="0"/>
        <pt x="-1145" y="1300" on="1"/>
        <pt x="-1218" y="1416" on="1"/>
        <pt x="-1086" y="1514" on="0"/>
        <pt x="-592" y="1755" on="0"/>
        <pt x="-335" y="1847" on="1"/>
      </contour>
    </TTGlyph>
    <TTGlyph name="uniAAB8" xMin="-1242" yMin="1300" xMax="-312" yMax="1803">
      <contour>
        <pt x="-637" y="1356" on="1"/>
        <pt x="-729" y="1492" on="1"/>
        <pt x="-1014" y="1349" on="0"/>
        <pt x="-1196" y="1300" on="1"/>
        <pt x="-1242" y="1430" on="1"/>
        <pt x="-1136" y="1454" on="0"/>
        <pt x="-803" y="1595" on="1"/>
        <pt x="-867" y="1679" on="0"/>
        <pt x="-918" y="1733" on="1"/>
        <pt x="-859" y="1777" on="1"/>
        <pt x="-801" y="1722" on="0"/>
        <pt x="-720" y="1631" on="1"/>
        <pt x="-509" y="1724" on="0"/>
        <pt x="-360" y="1803" on="1"/>
        <pt x="-312" y="1725" on="1"/>
        <pt x="-438" y="1644" on="0"/>
        <pt x="-641" y="1537" on="1"/>
        <pt x="-541" y="1410" on="1"/>
      </contour>
    </TTGlyph>
    <TTGlyph name="uniAAB9" xMin="160" yMin="-10" xMax="943" yMax="1264">
      <contour>
        <pt x="943" y="1203" on="1"/>
        <pt x="765" y="1006" on="0"/>
        <pt x="579" y="546" on="0"/>
        <pt x="579" y="308" on="1"/>
        <pt x="579" y="181" on="0"/>
        <pt x="609" y="57" on="1"/>
        <pt x="447" y="-10" on="1"/>
        <pt x="396" y="93" on="0"/>
        <pt x="244" y="226" on="0"/>
        <pt x="160" y="236" on="1"/>
        <pt x="184" y="340" on="1"/>
        <pt x="299" y="328" on="0"/>
        <pt x="399" y="269" on="1"/>
        <pt x="399" y="274" on="1"/>
        <pt x="399" y="509" on="0"/>
        <pt x="664" y="1037" on="0"/>
        <pt x="888" y="1264" on="1"/>
      </contour>
    </TTGlyph>
    <TTGlyph name="uniAABA" xMin="120" yMin="-8" xMax="1003" yMax="1660">
      <contour>
        <pt x="721" y="927" on="1"/>
        <pt x="750" y="782" on="0"/>
        <pt x="750" y="619" on="1"/>
        <pt x="750" y="547" on="0"/>
        <pt x="737" y="384" on="0"/>
        <pt x="737" y="284" on="1"/>
        <pt x="737" y="139" on="0"/>
        <pt x="779" y="50" on="1"/>
        <pt x="602" y="-8" on="1"/>
        <pt x="557" y="89" on="0"/>
        <pt x="557" y="253" on="1"/>
        <pt x="557" y="372" on="0"/>
        <pt x="570" y="570" on="0"/>
        <pt x="570" y="649" on="1"/>
        <pt x="570" y="719" on="0"/>
        <pt x="564" y="767" on="1"/>
        <pt x="456" y="763" on="1"/>
        <pt x="310" y="763" on="0"/>
        <pt x="120" y="937" on="0"/>
        <pt x="120" y="1076" on="1"/>
        <pt x="120" y="1210" on="0"/>
        <pt x="325" y="1446" on="0"/>
        <pt x="728" y="1623" on="0"/>
        <pt x="980" y="1660" on="1"/>
        <pt x="1003" y="1599" on="1"/>
        <pt x="734" y="1528" on="0"/>
        <pt x="433" y="1387" on="0"/>
        <pt x="300" y="1217" on="0"/>
        <pt x="300" y="1096" on="1"/>
        <pt x="300" y="1009" on="0"/>
        <pt x="394" y="903" on="0"/>
        <pt x="473" y="903" on="1"/>
        <pt x="515" y="903" on="0"/>
        <pt x="663" y="916" on="0"/>
      </contour>
    </TTGlyph>
    <TTGlyph name="uniAABB" xMin="0" yMin="-20" xMax="1164" yMax="2160">
      <contour>
        <pt x="793" y="-20" on="1"/>
        <pt x="671" y="120" on="0"/>
        <pt x="548" y="459" on="0"/>
        <pt x="548" y="673" on="1"/>
        <pt x="548" y="829" on="0"/>
        <pt x="585" y="1093" on="1"/>
        <pt x="629" y="1409" on="0"/>
        <pt x="638" y="1530" on="1"/>
        <pt x="536" y="1508" on="0"/>
        <pt x="469" y="1508" on="1"/>
        <pt x="330" y="1508" on="0"/>
        <pt x="121" y="1585" on="0"/>
        <pt x="0" y="1743" on="0"/>
        <pt x="0" y="1836" on="1"/>
        <pt x="0" y="1918" on="0"/>
        <pt x="105" y="2071" on="0"/>
        <pt x="285" y="2160" on="0"/>
        <pt x="397" y="2160" on="1"/>
        <pt x="597" y="2160" on="0"/>
        <pt x="819" y="1906" on="0"/>
        <pt x="823" y="1686" on="1"/>
        <pt x="980" y="1740" on="0"/>
        <pt x="1135" y="1822" on="1"/>
        <pt x="1164" y="1736" on="1"/>
        <pt x="1017" y="1647" on="0"/>
        <pt x="820" y="1581" on="1"/>
        <pt x="814" y="1440" on="0"/>
        <pt x="774" y="1160" on="0"/>
        <pt x="731" y="892" on="0"/>
        <pt x="698" y="637" on="0"/>
        <pt x="698" y="520" on="1"/>
        <pt x="698" y="379" on="0"/>
        <pt x="767" y="136" on="0"/>
        <pt x="853" y="38" on="1"/>
      </contour>
      <contour>
        <pt x="469" y="1618" on="1"/>
        <pt x="548" y="1618" on="0"/>
        <pt x="642" y="1637" on="1"/>
        <pt x="643" y="1657" on="1"/>
        <pt x="643" y="1676" on="1"/>
        <pt x="643" y="1833" on="0"/>
        <pt x="501" y="2020" on="0"/>
        <pt x="382" y="2020" on="1"/>
        <pt x="314" y="2020" on="0"/>
        <pt x="209" y="1970" on="0"/>
        <pt x="150" y="1885" on="0"/>
        <pt x="150" y="1839" on="1"/>
        <pt x="150" y="1776" on="0"/>
        <pt x="229" y="1670" on="0"/>
        <pt x="373" y="1618" on="0"/>
      </contour>
    </TTGlyph>
    <TTGlyph name="uniAABC" xMin="50" yMin="-10" xMax="1083" yMax="2160">
      <contour>
        <pt x="811" y="1153" on="1"/>
        <pt x="835" y="1132" on="0"/>
        <pt x="892" y="978" on="0"/>
        <pt x="928" y="785" on="0"/>
        <pt x="928" y="699" on="1"/>
        <pt x="928" y="598" on="0"/>
        <pt x="915" y="384" on="0"/>
        <pt x="915" y="284" on="1"/>
        <pt x="915" y="139" on="0"/>
        <pt x="957" y="50" on="1"/>
        <pt x="780" y="-10" on="1"/>
        <pt x="735" y="87" on="0"/>
        <pt x="735" y="253" on="1"/>
        <pt x="735" y="342" on="0"/>
        <pt x="748" y="554" on="0"/>
        <pt x="748" y="687" on="1"/>
        <pt x="748" y="788" on="0"/>
        <pt x="722" y="947" on="0"/>
        <pt x="701" y="976" on="1"/>
        <pt x="596" y="956" on="0"/>
        <pt x="481" y="956" on="1"/>
        <pt x="289" y="956" on="0"/>
        <pt x="50" y="1177" on="0"/>
        <pt x="50" y="1360" on="1"/>
        <pt x="50" y="1540" on="0"/>
        <pt x="308" y="1869" on="0"/>
        <pt x="799" y="2122" on="0"/>
        <pt x="1060" y="2160" on="1"/>
        <pt x="1083" y="2099" on="1"/>
        <pt x="828" y="2032" on="0"/>
        <pt x="439" y="1804" on="0"/>
        <pt x="230" y="1520" on="0"/>
        <pt x="230" y="1372" on="1"/>
        <pt x="230" y="1239" on="0"/>
        <pt x="368" y="1096" on="0"/>
        <pt x="491" y="1096" on="1"/>
        <pt x="646" y="1096" on="0"/>
      </contour>
    </TTGlyph>
    <TTGlyph name="uniAABD" xMin="120" yMin="-40" xMax="1357" yMax="1385">
      <contour>
        <pt x="765" y="1228" on="1"/>
        <pt x="916" y="1147" on="0"/>
        <pt x="1005" y="1093" on="1"/>
        <pt x="1121" y="1261" on="0"/>
        <pt x="1260" y="1385" on="1"/>
        <pt x="1308" y="1322" on="1"/>
        <pt x="1192" y="1201" on="0"/>
        <pt x="1102" y="1033" on="1"/>
        <pt x="1258" y="933" on="0"/>
        <pt x="1337" y="870" on="1"/>
        <pt x="1295" y="806" on="1"/>
        <pt x="1210" y="864" on="0"/>
        <pt x="1058" y="942" on="1"/>
        <pt x="944" y="680" on="0"/>
        <pt x="944" y="378" on="1"/>
        <pt x="944" y="320" on="0"/>
        <pt x="950" y="272" on="1"/>
        <pt x="1045" y="297" on="0"/>
        <pt x="1127" y="297" on="1"/>
        <pt x="1238" y="297" on="0"/>
        <pt x="1357" y="207" on="0"/>
        <pt x="1357" y="126" on="1"/>
        <pt x="1357" y="85" on="0"/>
        <pt x="1290" y="6" on="0"/>
        <pt x="1177" y="-40" on="0"/>
        <pt x="1110" y="-40" on="1"/>
        <pt x="926" y="-40" on="0"/>
        <pt x="835" y="103" on="1"/>
        <pt x="743" y="54" on="0"/>
        <pt x="520" y="-20" on="0"/>
        <pt x="447" y="-20" on="1"/>
        <pt x="339" y="-20" on="0"/>
        <pt x="212" y="103" on="0"/>
        <pt x="212" y="215" on="1"/>
        <pt x="212" y="263" on="0"/>
        <pt x="226" y="360" on="1"/>
        <pt x="239" y="456" on="0"/>
        <pt x="239" y="502" on="1"/>
        <pt x="239" y="590" on="0"/>
        <pt x="207" y="833" on="0"/>
        <pt x="155" y="1005" on="0"/>
        <pt x="120" y="1058" on="1"/>
        <pt x="287" y="1116" on="1"/>
        <pt x="347" y="1010" on="0"/>
        <pt x="419" y="677" on="0"/>
        <pt x="419" y="499" on="1"/>
        <pt x="419" y="427" on="0"/>
        <pt x="406" y="323" on="1"/>
        <pt x="392" y="218" on="0"/>
        <pt x="392" y="197" on="1"/>
        <pt x="392" y="154" on="0"/>
        <pt x="424" y="120" on="0"/>
        <pt x="469" y="120" on="1"/>
        <pt x="507" y="120" on="0"/>
        <pt x="585" y="136" on="0"/>
        <pt x="666" y="161" on="0"/>
        <pt x="785" y="213" on="1"/>
        <pt x="764" y="286" on="0"/>
        <pt x="764" y="371" on="1"/>
        <pt x="764" y="681" on="0"/>
        <pt x="945" y="997" on="1"/>
        <pt x="696" y="1113" on="1"/>
      </contour>
      <contour>
        <pt x="1115" y="187" on="1"/>
        <pt x="1048" y="187" on="0"/>
        <pt x="978" y="165" on="1"/>
        <pt x="1019" y="70" on="0"/>
        <pt x="1116" y="70" on="1"/>
        <pt x="1207" y="70" on="0"/>
        <pt x="1207" y="124" on="1"/>
        <pt x="1207" y="155" on="0"/>
        <pt x="1157" y="187" on="0"/>
      </contour>
    </TTGlyph>
    <TTGlyph name="uniAABE" xMin="-1191" yMin="1300" xMax="-120" yMax="2097">
      <contour>
        <pt x="-120" y="1976" on="1"/>
        <pt x="-345" y="1925" on="0"/>
        <pt x="-604" y="1908" on="1"/>
        <pt x="-617" y="1983" on="1"/>
        <pt x="-487" y="1998" on="0"/>
        <pt x="-147" y="2097" on="1"/>
      </contour>
      <contour>
        <pt x="-694" y="1368" on="1"/>
        <pt x="-919" y="1317" on="0"/>
        <pt x="-1178" y="1300" on="1"/>
        <pt x="-1191" y="1375" on="1"/>
        <pt x="-1061" y="1390" on="0"/>
        <pt x="-721" y="1489" on="1"/>
      </contour>
      <contour>
        <pt x="-407" y="1672" on="1"/>
        <pt x="-632" y="1621" on="0"/>
        <pt x="-891" y="1604" on="1"/>
        <pt x="-904" y="1679" on="1"/>
        <pt x="-774" y="1694" on="0"/>
        <pt x="-434" y="1793" on="1"/>
      </contour>
    </TTGlyph>
    <TTGlyph name="uniAABF" xMin="-724" yMin="1300" xMax="-320" yMax="2064">
      <contour>
        <pt x="-724" y="1333" on="1"/>
        <pt x="-692" y="1486" on="0"/>
        <pt x="-536" y="1947" on="0"/>
        <pt x="-468" y="2064" on="1"/>
        <pt x="-320" y="1991" on="1"/>
        <pt x="-398" y="1864" on="0"/>
        <pt x="-567" y="1497" on="0"/>
        <pt x="-635" y="1300" on="1"/>
      </contour>
    </TTGlyph>
    <TTGlyph name="uniAAC0" xMin="100" yMin="-20" xMax="1088" yMax="1118">
      <contour>
        <pt x="1088" y="215" on="1"/>
        <pt x="1003" y="104" on="0"/>
        <pt x="761" y="-20" on="0"/>
        <pt x="625" y="-20" on="1"/>
        <pt x="421" y="-20" on="0"/>
        <pt x="187" y="217" on="0"/>
        <pt x="187" y="420" on="1"/>
        <pt x="187" y="550" on="0"/>
        <pt x="229" y="678" on="1"/>
        <pt x="172" y="709" on="0"/>
        <pt x="100" y="758" on="1"/>
        <pt x="158" y="844" on="1"/>
        <pt x="221" y="799" on="0"/>
        <pt x="266" y="773" on="1"/>
        <pt x="345" y="940" on="0"/>
        <pt x="595" y="1118" on="0"/>
        <pt x="743" y="1118" on="1"/>
        <pt x="885" y="1118" on="0"/>
        <pt x="1042" y="978" on="0"/>
        <pt x="1042" y="858" on="1"/>
        <pt x="1042" y="768" on="0"/>
        <pt x="950" y="626" on="0"/>
        <pt x="776" y="545" on="0"/>
        <pt x="655" y="545" on="1"/>
        <pt x="528" y="545" on="0"/>
        <pt x="387" y="601" on="1"/>
        <pt x="366" y="509" on="0"/>
        <pt x="366" y="424" on="1"/>
        <pt x="366" y="277" on="0"/>
        <pt x="518" y="120" on="0"/>
        <pt x="658" y="120" on="1"/>
        <pt x="768" y="120" on="0"/>
        <pt x="955" y="212" on="0"/>
        <pt x="1010" y="289" on="1"/>
      </contour>
      <contour>
        <pt x="635" y="645" on="1"/>
        <pt x="738" y="645" on="0"/>
        <pt x="862" y="756" on="0"/>
        <pt x="862" y="844" on="1"/>
        <pt x="862" y="907" on="0"/>
        <pt x="784" y="978" on="0"/>
        <pt x="710" y="978" on="1"/>
        <pt x="617" y="978" on="0"/>
        <pt x="465" y="830" on="0"/>
        <pt x="415" y="696" on="1"/>
        <pt x="538" y="645" on="0"/>
      </contour>
    </TTGlyph>
    <TTGlyph name="uniAAC1" xMin="-1300" yMin="1300" xMax="-326" yMax="1918">
      <contour>
        <pt x="-326" y="1765" on="1"/>
        <pt x="-525" y="1670" on="0"/>
        <pt x="-1004" y="1383" on="0"/>
        <pt x="-1111" y="1300" on="1"/>
        <pt x="-1190" y="1401" on="1"/>
        <pt x="-1127" y="1445" on="1"/>
        <pt x="-1023" y="1535" on="0"/>
        <pt x="-1023" y="1689" on="1"/>
        <pt x="-1023" y="1746" on="0"/>
        <pt x="-1079" y="1808" on="0"/>
        <pt x="-1132" y="1808" on="1"/>
        <pt x="-1195" y="1808" on="0"/>
        <pt x="-1215" y="1777" on="1"/>
        <pt x="-1300" y="1860" on="1"/>
        <pt x="-1238" y="1918" on="0"/>
        <pt x="-1128" y="1918" on="1"/>
        <pt x="-1007" y="1918" on="0"/>
        <pt x="-873" y="1790" on="0"/>
        <pt x="-873" y="1681" on="1"/>
        <pt x="-873" y="1634" on="0"/>
        <pt x="-884" y="1594" on="1"/>
        <pt x="-631" y="1737" on="0"/>
        <pt x="-360" y="1839" on="1"/>
      </contour>
    </TTGlyph>
    <TTGlyph name="uniAAC2" xMin="-120" yMin="-600" xMax="855" yMax="1118">
      <contour>
        <pt x="845" y="586" on="1"/>
        <pt x="796" y="589" on="0"/>
        <pt x="716" y="599" on="1"/>
        <pt x="707" y="400" on="0"/>
        <pt x="509" y="-38" on="0"/>
        <pt x="156" y="-446" on="0"/>
        <pt x="-72" y="-600" on="1"/>
        <pt x="-120" y="-527" on="1"/>
        <pt x="537" y="-35" on="0"/>
        <pt x="537" y="630" on="1"/>
        <pt x="307" y="681" on="0"/>
        <pt x="68" y="844" on="0"/>
        <pt x="68" y="946" on="1"/>
        <pt x="68" y="1021" on="0"/>
        <pt x="197" y="1118" on="0"/>
        <pt x="292" y="1118" on="1"/>
        <pt x="464" y="1118" on="0"/>
        <pt x="692" y="893" on="0"/>
        <pt x="713" y="704" on="1"/>
        <pt x="855" y="684" on="1"/>
      </contour>
      <contour>
        <pt x="208" y="954" on="1"/>
        <pt x="208" y="887" on="0"/>
        <pt x="380" y="778" on="0"/>
        <pt x="529" y="741" on="1"/>
        <pt x="511" y="864" on="0"/>
        <pt x="387" y="1008" on="0"/>
        <pt x="299" y="1008" on="1"/>
        <pt x="255" y="1008" on="0"/>
        <pt x="208" y="971" on="0"/>
      </contour>
    </TTGlyph>
    <TTGlyph name="uniAADB" xMin="-55" yMin="-20" xMax="2083" yMax="1721">
      <contour>
        <pt x="-55" y="234" on="1"/>
        <pt x="115" y="354" on="0"/>
        <pt x="300" y="453" on="1"/>
        <pt x="391" y="765" on="0"/>
        <pt x="721" y="1118" on="0"/>
        <pt x="925" y="1118" on="1"/>
        <pt x="1038" y="1118" on="0"/>
        <pt x="1151" y="963" on="0"/>
        <pt x="1151" y="814" on="1"/>
        <pt x="1147" y="741" on="1"/>
        <pt x="1345" y="775" on="0"/>
        <pt x="1546" y="791" on="1"/>
        <pt x="1577" y="1069" on="0"/>
        <pt x="1817" y="1526" on="0"/>
        <pt x="2035" y="1721" on="1"/>
        <pt x="2083" y="1658" on="1"/>
        <pt x="1970" y="1550" on="0"/>
        <pt x="1835" y="1327" on="0"/>
        <pt x="1756" y="1048" on="0"/>
        <pt x="1729" y="802" on="1"/>
        <pt x="1868" y="808" on="0"/>
        <pt x="2012" y="808" on="1"/>
        <pt x="2009" y="721" on="1"/>
        <pt x="1857" y="717" on="0"/>
        <pt x="1719" y="705" on="1"/>
        <pt x="1688" y="348" on="0"/>
        <pt x="1457" y="-20" on="0"/>
        <pt x="1261" y="-20" on="1"/>
        <pt x="1116" y="-20" on="0"/>
        <pt x="939" y="194" on="0"/>
        <pt x="939" y="367" on="1"/>
        <pt x="939" y="451" on="0"/>
        <pt x="950" y="565" on="1"/>
        <pt x="686" y="486" on="0"/>
        <pt x="454" y="367" on="1"/>
        <pt x="434" y="240" on="0"/>
        <pt x="416" y="49" on="1"/>
        <pt x="220" y="-5" on="1"/>
        <pt x="229" y="129" on="0"/>
        <pt x="253" y="254" on="1"/>
        <pt x="151" y="191" on="0"/>
        <pt x="-7" y="76" on="1"/>
      </contour>
      <contour>
        <pt x="1298" y="120" on="1"/>
        <pt x="1350" y="120" on="0"/>
        <pt x="1429" y="178" on="0"/>
        <pt x="1483" y="287" on="0"/>
        <pt x="1522" y="475" on="0"/>
        <pt x="1537" y="686" on="1"/>
        <pt x="1319" y="658" on="0"/>
        <pt x="1134" y="614" on="1"/>
        <pt x="1119" y="477" on="0"/>
        <pt x="1119" y="379" on="1"/>
        <pt x="1119" y="263" on="0"/>
        <pt x="1217" y="120" on="0"/>
      </contour>
      <contour>
        <pt x="870" y="978" on="1"/>
        <pt x="602" y="978" on="0"/>
        <pt x="491" y="544" on="1"/>
        <pt x="722" y="644" on="0"/>
        <pt x="963" y="701" on="1"/>
        <pt x="971" y="810" on="0"/>
        <pt x="971" y="853" on="1"/>
        <pt x="971" y="921" on="0"/>
        <pt x="919" y="978" on="0"/>
      </contour>
    </TTGlyph>
    <TTGlyph name="uniAADC" xMin="220" yMin="-20" xMax="2083" yMax="1721">
      <contour>
        <pt x="1261" y="-20" on="1"/>
        <pt x="1116" y="-20" on="0"/>
        <pt x="939" y="194" on="0"/>
        <pt x="939" y="367" on="1"/>
        <pt x="939" y="444" on="0"/>
        <pt x="955" y="614" on="1"/>
        <pt x="971" y="783" on="0"/>
        <pt x="971" y="853" on="1"/>
        <pt x="971" y="921" on="0"/>
        <pt x="919" y="978" on="0"/>
        <pt x="870" y="978" on="1"/>
        <pt x="746" y="978" on="0"/>
        <pt x="563" y="790" on="0"/>
        <pt x="448" y="400" on="0"/>
        <pt x="416" y="49" on="1"/>
        <pt x="220" y="-5" on="1"/>
        <pt x="235" y="315" on="0"/>
        <pt x="430" y="835" on="0"/>
        <pt x="741" y="1118" on="0"/>
        <pt x="925" y="1118" on="1"/>
        <pt x="1038" y="1118" on="0"/>
        <pt x="1151" y="963" on="0"/>
        <pt x="1151" y="814" on="1"/>
        <pt x="1151" y="776" on="0"/>
        <pt x="1135" y="624" on="1"/>
        <pt x="1119" y="472" on="0"/>
        <pt x="1119" y="379" on="1"/>
        <pt x="1119" y="263" on="0"/>
        <pt x="1217" y="120" on="0"/>
        <pt x="1298" y="120" on="1"/>
        <pt x="1352" y="120" on="0"/>
        <pt x="1431" y="180" on="0"/>
        <pt x="1485" y="292" on="0"/>
        <pt x="1523" y="482" on="0"/>
        <pt x="1539" y="707" on="1"/>
        <pt x="1557" y="1007" on="0"/>
        <pt x="1798" y="1507" on="0"/>
        <pt x="2035" y="1721" on="1"/>
        <pt x="2083" y="1658" on="1"/>
        <pt x="1995" y="1574" on="0"/>
        <pt x="1875" y="1404" on="0"/>
        <pt x="1799" y="1216" on="0"/>
        <pt x="1744" y="955" on="0"/>
        <pt x="1717" y="682" on="1"/>
        <pt x="1684" y="336" on="0"/>
        <pt x="1454" y="-20" on="0"/>
      </contour>
    </TTGlyph>
    <TTGlyph name="uniAADD" xMin="120" yMin="-20" xMax="1349" yMax="2160">
      <contour>
        <pt x="120" y="-5" on="1"/>
        <pt x="176" y="477" on="0"/>
        <pt x="358" y="779" on="1"/>
        <pt x="143" y="980" on="0"/>
        <pt x="143" y="1233" on="1"/>
        <pt x="143" y="1458" on="0"/>
        <pt x="596" y="1944" on="0"/>
        <pt x="999" y="2160" on="1"/>
        <pt x="1047" y="2087" on="1"/>
        <pt x="817" y="1964" on="0"/>
        <pt x="493" y="1679" on="0"/>
        <pt x="323" y="1378" on="0"/>
        <pt x="323" y="1237" on="1"/>
        <pt x="323" y="1060" on="0"/>
        <pt x="452" y="912" on="1"/>
        <pt x="629" y="1118" on="0"/>
        <pt x="852" y="1118" on="1"/>
        <pt x="934" y="1118" on="0"/>
        <pt x="1061" y="1048" on="0"/>
        <pt x="1128" y="929" on="0"/>
        <pt x="1128" y="859" on="1"/>
        <pt x="1128" y="814" on="0"/>
        <pt x="1113" y="699" on="0"/>
        <pt x="1071" y="489" on="1"/>
        <pt x="1232" y="391" on="0"/>
        <pt x="1349" y="256" on="0"/>
        <pt x="1349" y="187" on="1"/>
        <pt x="1349" y="99" on="0"/>
        <pt x="1213" y="-20" on="0"/>
        <pt x="1107" y="-20" on="1"/>
        <pt x="995" y="-20" on="0"/>
        <pt x="876" y="106" on="0"/>
        <pt x="876" y="216" on="1"/>
        <pt x="876" y="302" on="0"/>
        <pt x="898" y="441" on="1"/>
        <pt x="673" y="558" on="0"/>
        <pt x="531" y="644" on="0"/>
        <pt x="461" y="694" on="1"/>
        <pt x="420" y="593" on="0"/>
        <pt x="355" y="315" on="0"/>
        <pt x="316" y="49" on="1"/>
      </contour>
      <contour>
        <pt x="810" y="978" on="1"/>
        <pt x="644" y="978" on="0"/>
        <pt x="535" y="829" on="1"/>
        <pt x="620" y="755" on="0"/>
        <pt x="820" y="632" on="0"/>
        <pt x="920" y="575" on="1"/>
        <pt x="948" y="748" on="0"/>
        <pt x="948" y="843" on="1"/>
        <pt x="948" y="892" on="0"/>
        <pt x="864" y="978" on="0"/>
      </contour>
      <contour>
        <pt x="1210" y="165" on="1"/>
        <pt x="1210" y="256" on="0"/>
        <pt x="1045" y="359" on="1"/>
        <pt x="1026" y="245" on="0"/>
        <pt x="1026" y="190" on="1"/>
        <pt x="1026" y="143" on="0"/>
        <pt x="1078" y="90" on="0"/>
        <pt x="1113" y="90" on="1"/>
        <pt x="1210" y="90" on="0"/>
      </contour>
    </TTGlyph>
    <TTGlyph name="uniAADE" xMin="100" yMin="-600" xMax="3320" yMax="2090">
      <contour>
        <pt x="3276" y="1363" on="1"/>
        <pt x="3084" y="1145" on="0"/>
        <pt x="2930" y="891" on="1"/>
        <pt x="3031" y="768" on="1"/>
        <pt x="2981" y="726" on="1"/>
        <pt x="2889" y="822" on="1"/>
        <pt x="2755" y="586" on="0"/>
        <pt x="2654" y="252" on="1"/>
        <pt x="2598" y="68" on="0"/>
        <pt x="2541" y="-16" on="0"/>
        <pt x="2497" y="-16" on="1"/>
        <pt x="2468" y="-16" on="0"/>
        <pt x="2431" y="-1" on="0"/>
        <pt x="2414" y="28" on="1"/>
        <pt x="2364" y="111" on="0"/>
        <pt x="2224" y="611" on="0"/>
        <pt x="2194" y="795" on="1"/>
        <pt x="2117" y="736" on="1"/>
        <pt x="2079" y="788" on="1"/>
        <pt x="2498" y="1150" on="1"/>
        <pt x="2528" y="1178" on="0"/>
        <pt x="2597" y="1222" on="0"/>
        <pt x="2617" y="1222" on="1"/>
        <pt x="2663" y="1222" on="0"/>
        <pt x="2743" y="1122" on="1"/>
        <pt x="2856" y="983" on="1"/>
        <pt x="3023" y="1227" on="0"/>
        <pt x="3227" y="1437" on="1"/>
      </contour>
      <contour>
        <pt x="3006" y="-316" on="1"/>
        <pt x="2884" y="-444" on="0"/>
        <pt x="2537" y="-600" on="0"/>
        <pt x="2372" y="-600" on="1"/>
        <pt x="2175" y="-600" on="0"/>
        <pt x="1924" y="-533" on="0"/>
        <pt x="1837" y="-462" on="1"/>
        <pt x="1781" y="-521" on="0"/>
        <pt x="1566" y="-600" on="0"/>
        <pt x="1456" y="-600" on="1"/>
        <pt x="1202" y="-600" on="0"/>
        <pt x="1031" y="-462" on="1"/>
        <pt x="944" y="-526" on="0"/>
        <pt x="741" y="-600" on="0"/>
        <pt x="657" y="-600" on="1"/>
        <pt x="317" y="-600" on="0"/>
        <pt x="100" y="-399" on="1"/>
        <pt x="241" y="-217" on="1"/>
        <pt x="325" y="-325" on="0"/>
        <pt x="563" y="-460" on="0"/>
        <pt x="678" y="-460" on="1"/>
        <pt x="804" y="-460" on="0"/>
        <pt x="993" y="-332" on="0"/>
        <pt x="1094" y="-186" on="1"/>
        <pt x="1206" y="-328" on="0"/>
        <pt x="1405" y="-460" on="0"/>
        <pt x="1499" y="-460" on="1"/>
        <pt x="1623" y="-460" on="0"/>
        <pt x="1800" y="-349" on="0"/>
        <pt x="1914" y="-186" on="1"/>
        <pt x="1977" y="-313" on="0"/>
        <pt x="2227" y="-460" on="0"/>
        <pt x="2378" y="-460" on="1"/>
        <pt x="2536" y="-460" on="0"/>
        <pt x="2822" y="-333" on="0"/>
        <pt x="2938" y="-212" on="1"/>
      </contour>
      <contour>
        <pt x="1063" y="893" on="1"/>
        <pt x="1099" y="812" on="0"/>
        <pt x="1099" y="684" on="1"/>
        <pt x="1099" y="613" on="0"/>
        <pt x="1088" y="435" on="0"/>
        <pt x="1088" y="329" on="1"/>
        <pt x="1088" y="210" on="0"/>
        <pt x="1138" y="96" on="0"/>
        <pt x="1191" y="96" on="1"/>
        <pt x="1219" y="96" on="0"/>
        <pt x="1269" y="136" on="0"/>
        <pt x="1313" y="208" on="0"/>
        <pt x="1357" y="323" on="0"/>
        <pt x="1395" y="466" on="1"/>
        <pt x="1456" y="699" on="0"/>
        <pt x="1616" y="893" on="0"/>
        <pt x="1733" y="893" on="1"/>
        <pt x="1822" y="893" on="0"/>
        <pt x="1957" y="774" on="0"/>
        <pt x="2030" y="565" on="0"/>
        <pt x="2030" y="435" on="1"/>
        <pt x="2030" y="240" on="0"/>
        <pt x="1876" y="-16" on="0"/>
        <pt x="1753" y="-16" on="1"/>
        <pt x="1687" y="-16" on="0"/>
        <pt x="1568" y="64" on="0"/>
        <pt x="1539" y="125" on="1"/>
        <pt x="1591" y="157" on="1"/>
        <pt x="1634" y="107" on="0"/>
        <pt x="1695" y="72" on="0"/>
        <pt x="1726" y="72" on="1"/>
        <pt x="1794" y="72" on="0"/>
        <pt x="1886" y="279" on="0"/>
        <pt x="1886" y="426" on="1"/>
        <pt x="1886" y="585" on="0"/>
        <pt x="1786" y="781" on="0"/>
        <pt x="1703" y="781" on="1"/>
        <pt x="1645" y="781" on="0"/>
        <pt x="1546" y="606" on="0"/>
        <pt x="1492" y="409" on="1"/>
        <pt x="1462" y="306" on="1"/>
        <pt x="1362" y="-16" on="0"/>
        <pt x="1162" y="-16" on="1"/>
        <pt x="1058" y="-16" on="0"/>
        <pt x="944" y="160" on="0"/>
        <pt x="944" y="319" on="1"/>
        <pt x="944" y="400" on="0"/>
        <pt x="955" y="579" on="0"/>
        <pt x="955" y="659" on="1"/>
        <pt x="955" y="778" on="0"/>
        <pt x="921" y="846" on="1"/>
      </contour>
      <contour>
        <pt x="2316" y="887" on="1"/>
        <pt x="2333" y="741" on="0"/>
        <pt x="2466" y="230" on="0"/>
        <pt x="2497" y="180" on="1"/>
        <pt x="2606" y="591" on="0"/>
        <pt x="2807" y="909" on="1"/>
        <pt x="2719" y="1002" on="1"/>
        <pt x="2693" y="1028" on="0"/>
        <pt x="2635" y="1074" on="0"/>
        <pt x="2606" y="1074" on="1"/>
        <pt x="2563" y="1074" on="0"/>
        <pt x="2474" y="1008" on="1"/>
      </contour>
      <contour>
        <pt x="827" y="962" on="1"/>
        <pt x="683" y="801" on="0"/>
        <pt x="536" y="437" on="0"/>
        <pt x="536" y="246" on="1"/>
        <pt x="536" y="142" on="0"/>
        <pt x="560" y="46" on="1"/>
        <pt x="431" y="-8" on="1"/>
        <pt x="391" y="73" on="0"/>
        <pt x="267" y="181" on="0"/>
        <pt x="201" y="189" on="1"/>
        <pt x="220" y="272" on="1"/>
        <pt x="314" y="262" on="0"/>
        <pt x="392" y="215" on="1"/>
        <pt x="392" y="219" on="1"/>
        <pt x="392" y="400" on="0"/>
        <pt x="598" y="821" on="0"/>
        <pt x="783" y="1011" on="1"/>
      </contour>
      <contour>
        <pt x="2012" y="1271" on="1"/>
        <pt x="1743" y="1215" on="0"/>
        <pt x="1204" y="1061" on="0"/>
        <pt x="1131" y="1021" on="1"/>
        <pt x="1078" y="1137" on="1"/>
        <pt x="1226" y="1202" on="0"/>
        <pt x="1763" y="1320" on="0"/>
        <pt x="1999" y="1342" on="1"/>
      </contour>
      <contour>
        <pt x="204" y="1607" on="1"/>
        <pt x="300" y="1698" on="0"/>
        <pt x="690" y="1915" on="0"/>
        <pt x="1051" y="2029" on="0"/>
        <pt x="1194" y="2029" on="1"/>
        <pt x="1379" y="2029" on="0"/>
        <pt x="1628" y="1936" on="0"/>
        <pt x="1729" y="1841" on="1"/>
        <pt x="1793" y="1885" on="0"/>
        <pt x="1932" y="1974" on="0"/>
        <pt x="2111" y="2045" on="0"/>
        <pt x="2345" y="2090" on="0"/>
        <pt x="2503" y="2090" on="1"/>
        <pt x="2755" y="2090" on="0"/>
        <pt x="3196" y="1900" on="0"/>
        <pt x="3320" y="1742" on="1"/>
        <pt x="3138" y="1508" on="1"/>
        <pt x="2888" y="1952" on="0"/>
        <pt x="2488" y="1952" on="1"/>
        <pt x="1910" y="1952" on="0"/>
        <pt x="1649" y="1508" on="1"/>
        <pt x="1568" y="1671" on="0"/>
        <pt x="1445" y="1812" on="0"/>
        <pt x="1290" y="1889" on="0"/>
        <pt x="1188" y="1889" on="1"/>
        <pt x="945" y="1889" on="0"/>
        <pt x="421" y="1659" on="0"/>
        <pt x="272" y="1503" on="1"/>
      </contour>
      <contour>
        <pt x="788" y="-298" on="1"/>
        <pt x="727" y="-326" on="0"/>
        <pt x="678" y="-326" on="1"/>
        <pt x="510" y="-326" on="0"/>
        <pt x="390" y="-223" on="1"/>
        <pt x="477" y="-96" on="1"/>
        <pt x="527" y="-153" on="0"/>
        <pt x="638" y="-214" on="0"/>
        <pt x="690" y="-214" on="1"/>
        <pt x="733" y="-214" on="0"/>
        <pt x="767" y="-200" on="1"/>
      </contour>
      <contour>
        <pt x="1303" y="1546" on="1"/>
        <pt x="1215" y="1601" on="0"/>
        <pt x="1133" y="1601" on="1"/>
        <pt x="1032" y="1601" on="0"/>
        <pt x="966" y="1520" on="1"/>
        <pt x="916" y="1609" on="1"/>
        <pt x="1021" y="1732" on="0"/>
        <pt x="1187" y="1732" on="1"/>
        <pt x="1270" y="1732" on="0"/>
        <pt x="1347" y="1701" on="1"/>
      </contour>
      <contour>
        <pt x="700" y="1307" on="1"/>
        <pt x="612" y="1362" on="0"/>
        <pt x="530" y="1362" on="1"/>
        <pt x="429" y="1362" on="0"/>
        <pt x="363" y="1281" on="1"/>
        <pt x="313" y="1370" on="1"/>
        <pt x="418" y="1493" on="0"/>
        <pt x="584" y="1493" on="1"/>
        <pt x="667" y="1493" on="0"/>
        <pt x="744" y="1462" on="1"/>
      </contour>
      <contour>
        <pt x="2222" y="1589" on="1"/>
        <pt x="2175" y="1599" on="0"/>
        <pt x="2127" y="1599" on="1"/>
        <pt x="1980" y="1599" on="0"/>
        <pt x="1895" y="1494" on="1"/>
        <pt x="1830" y="1573" on="1"/>
        <pt x="1902" y="1660" on="0"/>
        <pt x="2093" y="1752" on="0"/>
        <pt x="2191" y="1752" on="1"/>
        <pt x="2214" y="1752" on="1"/>
        <pt x="2237" y="1750" on="1"/>
      </contour>
      <contour>
        <pt x="2791" y="1478" on="1"/>
        <pt x="2744" y="1488" on="0"/>
        <pt x="2696" y="1488" on="1"/>
        <pt x="2549" y="1488" on="0"/>
        <pt x="2464" y="1383" on="1"/>
        <pt x="2399" y="1462" on="1"/>
        <pt x="2471" y="1549" on="0"/>
        <pt x="2662" y="1641" on="0"/>
        <pt x="2760" y="1641" on="1"/>
        <pt x="2783" y="1641" on="1"/>
        <pt x="2806" y="1639" on="1"/>
      </contour>
      <contour>
        <pt x="1688" y="-298" on="1"/>
        <pt x="1627" y="-326" on="0"/>
        <pt x="1578" y="-326" on="1"/>
        <pt x="1410" y="-326" on="0"/>
        <pt x="1290" y="-223" on="1"/>
        <pt x="1377" y="-96" on="1"/>
        <pt x="1427" y="-153" on="0"/>
        <pt x="1538" y="-214" on="0"/>
        <pt x="1590" y="-214" on="1"/>
        <pt x="1633" y="-214" on="0"/>
        <pt x="1667" y="-200" on="1"/>
      </contour>
      <contour>
        <pt x="2588" y="-298" on="1"/>
        <pt x="2527" y="-326" on="0"/>
        <pt x="2478" y="-326" on="1"/>
        <pt x="2310" y="-326" on="0"/>
        <pt x="2190" y="-223" on="1"/>
        <pt x="2277" y="-96" on="1"/>
        <pt x="2327" y="-153" on="0"/>
        <pt x="2438" y="-214" on="0"/>
        <pt x="2490" y="-214" on="1"/>
        <pt x="2533" y="-214" on="0"/>
        <pt x="2567" y="-200" on="1"/>
      </contour>
    </TTGlyph>
    <TTGlyph name="uniAADF" xMin="200" yMin="-20" xMax="1479" yMax="2160">
      <contour>
        <pt x="570" y="1118" on="1"/>
        <pt x="728" y="1118" on="0"/>
        <pt x="859" y="1111" on="1"/>
        <pt x="903" y="1243" on="1"/>
        <pt x="862" y="1231" on="0"/>
        <pt x="809" y="1231" on="1"/>
        <pt x="695" y="1231" on="0"/>
        <pt x="522" y="1321" on="0"/>
        <pt x="428" y="1478" on="0"/>
        <pt x="428" y="1573" on="1"/>
        <pt x="428" y="1708" on="0"/>
        <pt x="642" y="1949" on="0"/>
        <pt x="1035" y="2125" on="0"/>
        <pt x="1275" y="2160" on="1"/>
        <pt x="1298" y="2099" on="1"/>
        <pt x="1056" y="2035" on="0"/>
        <pt x="753" y="1885" on="0"/>
        <pt x="611" y="1705" on="0"/>
        <pt x="611" y="1585" on="1"/>
        <pt x="611" y="1480" on="0"/>
        <pt x="716" y="1369" on="0"/>
        <pt x="817" y="1369" on="1"/>
        <pt x="920" y="1369" on="0"/>
        <pt x="981" y="1408" on="1"/>
        <pt x="1037" y="1328" on="1"/>
        <pt x="1011" y="1231" on="0"/>
        <pt x="990" y="1102" on="1"/>
        <pt x="1479" y="1057" on="0"/>
        <pt x="1479" y="890" on="1"/>
        <pt x="1479" y="818" on="0"/>
        <pt x="1378" y="707" on="0"/>
        <pt x="1166" y="622" on="0"/>
        <pt x="953" y="580" on="1"/>
        <pt x="958" y="420" on="0"/>
        <pt x="976" y="326" on="1"/>
        <pt x="1052" y="334" on="0"/>
        <pt x="1134" y="334" on="1"/>
        <pt x="1247" y="334" on="0"/>
        <pt x="1384" y="243" on="0"/>
        <pt x="1384" y="164" on="1"/>
        <pt x="1384" y="86" on="0"/>
        <pt x="1253" y="-20" on="0"/>
        <pt x="1151" y="-20" on="1"/>
        <pt x="934" y="-20" on="0"/>
        <pt x="839" y="185" on="1"/>
        <pt x="683" y="147" on="0"/>
        <pt x="542" y="124" on="0"/>
        <pt x="476" y="124" on="1"/>
        <pt x="360" y="124" on="0"/>
        <pt x="200" y="234" on="0"/>
        <pt x="200" y="323" on="1"/>
        <pt x="200" y="408" on="0"/>
        <pt x="323" y="534" on="0"/>
        <pt x="551" y="627" on="0"/>
        <pt x="777" y="673" on="1"/>
        <pt x="788" y="812" on="0"/>
        <pt x="823" y="969" on="1"/>
        <pt x="666" y="978" on="0"/>
        <pt x="486" y="978" on="1"/>
        <pt x="362" y="978" on="0"/>
        <pt x="310" y="975" on="1"/>
        <pt x="330" y="1116" on="1"/>
      </contour>
      <contour>
        <pt x="798" y="301" on="1"/>
        <pt x="772" y="403" on="0"/>
        <pt x="772" y="541" on="1"/>
        <pt x="772" y="545" on="1"/>
        <pt x="545" y="500" on="0"/>
        <pt x="380" y="404" on="0"/>
        <pt x="380" y="338" on="1"/>
        <pt x="380" y="264" on="0"/>
        <pt x="483" y="264" on="1"/>
        <pt x="564" y="264" on="0"/>
        <pt x="717" y="287" on="0"/>
      </contour>
      <contour>
        <pt x="1299" y="866" on="1"/>
        <pt x="1299" y="898" on="0"/>
        <pt x="1124" y="944" on="0"/>
        <pt x="971" y="958" on="1"/>
        <pt x="957" y="834" on="0"/>
        <pt x="953" y="708" on="1"/>
        <pt x="1154" y="747" on="0"/>
        <pt x="1299" y="819" on="0"/>
      </contour>
      <contour>
        <pt x="1122" y="224" on="1"/>
        <pt x="1072" y="224" on="0"/>
        <pt x="1007" y="217" on="1"/>
        <pt x="1058" y="90" on="0"/>
        <pt x="1157" y="90" on="1"/>
        <pt x="1234" y="90" on="0"/>
        <pt x="1234" y="165" on="1"/>
        <pt x="1234" y="186" on="0"/>
        <pt x="1178" y="224" on="0"/>
      </contour>
    </TTGlyph>
</ttFont>
